   <svg width="auto" height="auto" viewBox="0 0 190 191" fill="none" xmlns="http://www.w3.org/2000/svg">
                    <g clip-path="url(#clip0_2_21487)">
                    <path d="M189.5 0.178711H0.5V190.82H189.5V0.178711Z" fill="url(#paint0_linear_2_21487)"/>
                    <ellipse cx="93.3584" cy="179.739" rx="189.308" ry="100.759" fill="url(#paint1_linear_2_21487)"/>
                    <path d="M95 13.5176C124.154 13.5177 147.787 37.152 147.787 66.3057C147.787 95.4592 124.154 119.093 95 119.093C65.8464 119.093 42.212 95.4593 42.2119 66.3057C42.2119 37.1519 65.8463 13.5176 95 13.5176Z" fill="white" stroke="url(#paint2_linear_2_21487)" stroke-width="4.10423"/>
                    <mask id="path-5-inside-1_2_21487" fill="white">
                    <path fill-rule="evenodd" clip-rule="evenodd" d="M98.3831 81.5777C98.3983 81.9651 98.3954 82.358 98.3692 82.7561C98.2815 84.1227 97.9758 85.5414 97.4567 86.6604C96.7841 88.1119 96.4552 88.5572 95.3686 89.7327C94.5977 90.5667 93.3727 91.3259 92.0199 91.7393C88.6907 92.7552 86.074 91.6378 84.007 90.3091C83.0553 89.6974 83.1517 89.6595 82.498 89.2241C82.4779 89.211 82.4621 89.1981 82.4443 89.1821L81.1241 87.968L81.118 87.9622C76.8494 83.8789 72.5684 75.2844 73.7207 68.832C74.4909 64.5219 77.6933 61.3308 81.9377 61.2932C82.5772 61.2877 83.1233 61.3308 83.613 61.4172C83.8187 61.4532 84.0174 61.3426 84.0914 61.1489C84.1662 60.9552 84.0934 60.7412 83.9161 60.6317C83.8543 60.5935 83.7906 60.5549 83.7265 60.5154C83.7178 60.5099 83.7107 60.5067 83.702 60.5016C81.3202 59.2502 78.12 58.412 75.3099 58.6556C71.1703 59.0151 68.4664 61.8776 67.5787 65.7411C65.577 74.4468 70.5606 84.9731 75.8178 90.4331C78.9352 93.6692 82.1942 96.2628 86.5415 97.7644C96.8104 101.311 100.901 93.6518 99.7524 84.3261C99.6275 83.3115 99.4564 82.3821 99.2332 81.4607C99.1815 81.2455 98.9754 81.1057 98.7548 81.1362C98.5348 81.1677 98.3747 81.3563 98.3831 81.5777ZM84.7792 69.8745C87.3796 69.5539 90.7998 72.4395 92.4175 76.3195C94.0349 80.1988 93.2385 83.6042 90.6384 83.9248C88.0379 84.2455 84.6184 81.3598 83.001 77.4805C81.3833 73.6006 82.1797 70.1952 84.7792 69.8745Z"/>
                    <path fill-rule="evenodd" clip-rule="evenodd" d="M118.818 47.2544C113.59 40.7648 106.595 35.4055 99.6453 33.3841C98.6024 33.0814 97.5269 33.4464 97.3111 34.6621C97.1552 35.5401 97.3648 36.7252 98.4552 37.7594C99.6942 38.9346 104.969 39.6674 111.203 45.5582C111.765 44.8604 112.383 43.9576 113.043 43.5457C113.463 43.2836 113.953 43.2624 114.395 43.4879C114.836 43.7131 115.105 44.1211 115.135 44.6133C115.214 45.9279 114.992 47.0922 114.653 48.3439C114.611 48.5585 114.541 48.7975 114.455 49.0445C115.496 50.3004 116.548 51.7127 117.598 53.3081C120.496 57.7146 122.264 62.4507 122.979 66.4681C123.367 68.6454 123.289 71.5872 123.639 72.4922C124.66 75.1279 128.061 75.6586 128.281 73.1431C128.581 69.7348 127.44 64.4846 126.289 60.8916C124.906 56.5786 122.064 51.2831 118.818 47.2544ZM104.091 66.7297C104.172 68.0224 104.201 69.1225 105.053 70.0416C106.622 71.7363 109.166 71.3411 109.193 68.8866C109.229 65.7983 108.705 63.127 106.613 59.763C106.474 59.5391 106.331 59.3209 106.185 59.1086C106.035 59.22 105.886 59.3293 105.744 59.4411C103.705 61.0513 104.15 62.0228 104.167 64.4532C104.172 65.2162 104.149 65.9776 104.091 66.7297ZM107.925 48.3227C105.235 45.9626 102.288 44.1137 99.3539 43.1358C98.1845 42.7445 96.1459 41.7058 95.2217 43.5987C94.5926 44.8877 95.3288 47.0816 97.2043 47.9429L99.394 48.7313C100.093 49.0086 100.774 49.324 101.436 49.6723C102.187 49.5412 102.942 49.4558 103.678 49.4066C105.234 49.1547 106.655 48.8955 107.925 48.3227ZM108.515 55.565C111.277 59.0244 113.067 63.2796 113.494 67.759C113.672 69.6063 113.219 71.096 114.414 72.5668C115.629 74.0606 117.874 74.4471 118.648 72.7149C119.353 71.1374 118.436 65.6084 117.733 63.3429C116.675 59.9377 114.887 56.0565 112.222 52.7876C111.181 53.9329 109.905 54.8723 108.515 55.565Z"/>
                    <path fill-rule="evenodd" clip-rule="evenodd" d="M111.444 47.3566C109.518 49.3703 107.696 50.0543 105.773 50.4141C103.159 50.9028 100.702 50.8864 98.2272 52.0503C96.1543 53.0302 94.4978 55.0738 93.6509 57.1748C93.463 57.6407 93.3297 58.1104 93.2052 58.6058C92.3813 61.8734 92.84 65.5047 93.2213 68.9262L93.2223 68.9326C93.44 71.1792 93.0363 72.1713 92.6323 72.9642C92.544 73.138 92.5808 73.3417 92.7254 73.4727C92.8704 73.6051 93.0774 73.624 93.2443 73.5212C95.0209 72.4276 96.0262 69.8896 96.3982 68.0803C96.6784 66.7223 96.9161 65.397 97.1591 63.9761C97.4308 62.39 97.9936 59.6981 98.8936 58.4111C99.4179 57.6641 100.089 57.1267 100.846 56.7212C102.61 55.777 104.842 55.5672 106.747 54.8534C109.118 53.9712 111.259 52.3244 112.486 50.1002C112.725 49.6688 113.211 48.6369 113.317 48.0592C113.319 48.047 113.321 48.0364 113.324 48.0248C113.526 47.2837 113.7 46.5544 113.761 45.766C113.775 45.5771 113.67 45.4081 113.493 45.3365C113.317 45.2645 113.123 45.3127 113 45.4579C112.471 46.0863 111.87 46.9113 111.444 47.3566ZM87.8066 68.8401C87.9784 69.8135 87.9334 71.2014 87.7917 72.2979C87.7736 72.4357 87.6982 72.5472 87.5766 72.6162C87.4547 72.6843 87.3201 72.6924 87.1917 72.6362C86.4244 72.3036 85.0878 71.9255 85.1224 73.8563C85.1495 75.4029 85.7211 76.6616 86.3222 77.7857C87.0464 79.1412 89.2771 81.6798 90.2767 80.3388C90.574 79.9398 90.6047 79.3641 90.5585 78.7576C90.5494 78.6358 90.5863 78.5285 90.6684 78.4379C90.7503 78.348 90.8541 78.3007 90.9764 78.2969C92.1241 78.2654 93.4698 77.9554 94.9756 77.4301C95.7522 77.1606 96.4985 76.7815 97.1413 76.4377C101.743 74.0597 102.834 69.2545 102.8 64.4625C102.787 62.611 102.471 60.8733 103.813 59.3996C104.286 58.8798 104.77 58.4095 105.207 58.0207C105.347 57.8948 105.389 57.7011 105.313 57.5286C105.235 57.3557 105.064 57.2561 104.875 57.2754C104.391 57.3246 103.895 57.4152 103.38 57.6047C101.626 58.2508 100.243 59.779 99.7579 61.5653C98.6581 65.6104 99.3772 69.3991 95.8752 73.0419C95.871 73.0464 95.8671 73.0503 95.8638 73.0548C95.0532 73.9668 92.095 76.0724 90.5649 76.6976C90.3501 76.7853 90.104 76.6876 90.0076 76.4772L89.478 75.312C89.4214 75.1889 89.4253 75.0582 89.4884 74.938C90.3204 73.3522 91.1375 73.0798 91.5509 70.608C91.8478 68.8375 91.5619 68.2589 91.4008 66.5215C91.4005 66.5176 91.3998 66.5134 91.4001 66.5096C91.2255 63.7605 90.4345 61.4548 91.6625 58.4612C91.8339 58.0436 92.0778 57.5925 92.2865 57.1989C92.3722 57.0367 92.3486 56.8484 92.2257 56.7125C92.1027 56.5763 91.9164 56.5333 91.7459 56.6007C90.4446 57.1141 89.3625 58.0766 88.5946 59.2419C86.5521 62.3428 87.2221 65.4941 87.8066 68.8401Z"/>
                    <path fill-rule="evenodd" clip-rule="evenodd" d="M82.9043 98.8149C80.4649 97.5247 78.2646 95.9553 76.304 94.0261C70.284 88.0997 66.0836 79.9713 65.3516 71.3851C65.3328 71.1692 65.1572 71.0025 64.9391 70.9935C64.7201 70.9848 64.5325 71.1374 64.496 71.3514C63.9626 74.5271 63.8034 77.9955 63.6666 81.3075C63.586 83.2669 61.4973 84.1057 61.3925 86.6473C61.2366 90.4022 65.8672 97.4582 70.6631 97.4913C71.2522 97.4955 71.882 97.4238 72.4714 97.2806C75.3216 96.5895 73.5573 96.3267 76.9396 97.7641C77.7797 98.1213 78.7556 98.5171 79.6792 98.8085C80.1327 98.9521 81.3538 99.2971 82.5966 99.6081C82.8095 99.6615 83.0262 99.5503 83.1045 99.3469C83.1834 99.1436 83.098 98.9171 82.9043 98.8149Z"/>
                    </mask>
                    <path fill-rule="evenodd" clip-rule="evenodd" d="M98.3831 81.5777C98.3983 81.9651 98.3954 82.358 98.3692 82.7561C98.2815 84.1227 97.9758 85.5414 97.4567 86.6604C96.7841 88.1119 96.4552 88.5572 95.3686 89.7327C94.5977 90.5667 93.3727 91.3259 92.0199 91.7393C88.6907 92.7552 86.074 91.6378 84.007 90.3091C83.0553 89.6974 83.1517 89.6595 82.498 89.2241C82.4779 89.211 82.4621 89.1981 82.4443 89.1821L81.1241 87.968L81.118 87.9622C76.8494 83.8789 72.5684 75.2844 73.7207 68.832C74.4909 64.5219 77.6933 61.3308 81.9377 61.2932C82.5772 61.2877 83.1233 61.3308 83.613 61.4172C83.8187 61.4532 84.0174 61.3426 84.0914 61.1489C84.1662 60.9552 84.0934 60.7412 83.9161 60.6317C83.8543 60.5935 83.7906 60.5549 83.7265 60.5154C83.7178 60.5099 83.7107 60.5067 83.702 60.5016C81.3202 59.2502 78.12 58.412 75.3099 58.6556C71.1703 59.0151 68.4664 61.8776 67.5787 65.7411C65.577 74.4468 70.5606 84.9731 75.8178 90.4331C78.9352 93.6692 82.1942 96.2628 86.5415 97.7644C96.8104 101.311 100.901 93.6518 99.7524 84.3261C99.6275 83.3115 99.4564 82.3821 99.2332 81.4607C99.1815 81.2455 98.9754 81.1057 98.7548 81.1362C98.5348 81.1677 98.3747 81.3563 98.3831 81.5777ZM84.7792 69.8745C87.3796 69.5539 90.7998 72.4395 92.4175 76.3195C94.0349 80.1988 93.2385 83.6042 90.6384 83.9248C88.0379 84.2455 84.6184 81.3598 83.001 77.4805C81.3833 73.6006 82.1797 70.1952 84.7792 69.8745Z" fill="#242424"/>
                    <path fill-rule="evenodd" clip-rule="evenodd" d="M118.818 47.2544C113.59 40.7648 106.595 35.4055 99.6453 33.3841C98.6024 33.0814 97.5269 33.4464 97.3111 34.6621C97.1552 35.5401 97.3648 36.7252 98.4552 37.7594C99.6942 38.9346 104.969 39.6674 111.203 45.5582C111.765 44.8604 112.383 43.9576 113.043 43.5457C113.463 43.2836 113.953 43.2624 114.395 43.4879C114.836 43.7131 115.105 44.1211 115.135 44.6133C115.214 45.9279 114.992 47.0922 114.653 48.3439C114.611 48.5585 114.541 48.7975 114.455 49.0445C115.496 50.3004 116.548 51.7127 117.598 53.3081C120.496 57.7146 122.264 62.4507 122.979 66.4681C123.367 68.6454 123.289 71.5872 123.639 72.4922C124.66 75.1279 128.061 75.6586 128.281 73.1431C128.581 69.7348 127.44 64.4846 126.289 60.8916C124.906 56.5786 122.064 51.2831 118.818 47.2544ZM104.091 66.7297C104.172 68.0224 104.201 69.1225 105.053 70.0416C106.622 71.7363 109.166 71.3411 109.193 68.8866C109.229 65.7983 108.705 63.127 106.613 59.763C106.474 59.5391 106.331 59.3209 106.185 59.1086C106.035 59.22 105.886 59.3293 105.744 59.4411C103.705 61.0513 104.15 62.0228 104.167 64.4532C104.172 65.2162 104.149 65.9776 104.091 66.7297ZM107.925 48.3227C105.235 45.9626 102.288 44.1137 99.3539 43.1358C98.1845 42.7445 96.1459 41.7058 95.2217 43.5987C94.5926 44.8877 95.3288 47.0816 97.2043 47.9429L99.394 48.7313C100.093 49.0086 100.774 49.324 101.436 49.6723C102.187 49.5412 102.942 49.4558 103.678 49.4066C105.234 49.1547 106.655 48.8955 107.925 48.3227ZM108.515 55.565C111.277 59.0244 113.067 63.2796 113.494 67.759C113.672 69.6063 113.219 71.096 114.414 72.5668C115.629 74.0606 117.874 74.4471 118.648 72.7149C119.353 71.1374 118.436 65.6084 117.733 63.3429C116.675 59.9377 114.887 56.0565 112.222 52.7876C111.181 53.9329 109.905 54.8723 108.515 55.565Z" fill="#CDCDCD"/>
                    <path fill-rule="evenodd" clip-rule="evenodd" d="M111.444 47.3566C109.518 49.3703 107.696 50.0543 105.773 50.4141C103.159 50.9028 100.702 50.8864 98.2272 52.0503C96.1543 53.0302 94.4978 55.0738 93.6509 57.1748C93.463 57.6407 93.3297 58.1104 93.2052 58.6058C92.3813 61.8734 92.84 65.5047 93.2213 68.9262L93.2223 68.9326C93.44 71.1792 93.0363 72.1713 92.6323 72.9642C92.544 73.138 92.5808 73.3417 92.7254 73.4727C92.8704 73.6051 93.0774 73.624 93.2443 73.5212C95.0209 72.4276 96.0262 69.8896 96.3982 68.0803C96.6784 66.7223 96.9161 65.397 97.1591 63.9761C97.4308 62.39 97.9936 59.6981 98.8936 58.4111C99.4179 57.6641 100.089 57.1267 100.846 56.7212C102.61 55.777 104.842 55.5672 106.747 54.8534C109.118 53.9712 111.259 52.3244 112.486 50.1002C112.725 49.6688 113.211 48.6369 113.317 48.0592C113.319 48.047 113.321 48.0364 113.324 48.0248C113.526 47.2837 113.7 46.5544 113.761 45.766C113.775 45.5771 113.67 45.4081 113.493 45.3365C113.317 45.2645 113.123 45.3127 113 45.4579C112.471 46.0863 111.87 46.9113 111.444 47.3566ZM87.8066 68.8401C87.9784 69.8135 87.9334 71.2014 87.7917 72.2979C87.7736 72.4357 87.6982 72.5472 87.5766 72.6162C87.4547 72.6843 87.3201 72.6924 87.1917 72.6362C86.4244 72.3036 85.0878 71.9255 85.1224 73.8563C85.1495 75.4029 85.7211 76.6616 86.3222 77.7857C87.0464 79.1412 89.2771 81.6798 90.2767 80.3388C90.574 79.9398 90.6047 79.3641 90.5585 78.7576C90.5494 78.6358 90.5863 78.5285 90.6684 78.4379C90.7503 78.348 90.8541 78.3007 90.9764 78.2969C92.1241 78.2654 93.4698 77.9554 94.9756 77.4301C95.7522 77.1606 96.4985 76.7815 97.1413 76.4377C101.743 74.0597 102.834 69.2545 102.8 64.4625C102.787 62.611 102.471 60.8733 103.813 59.3996C104.286 58.8798 104.77 58.4095 105.207 58.0207C105.347 57.8948 105.389 57.7011 105.313 57.5286C105.235 57.3557 105.064 57.2561 104.875 57.2754C104.391 57.3246 103.895 57.4152 103.38 57.6047C101.626 58.2508 100.243 59.779 99.7579 61.5653C98.6581 65.6104 99.3772 69.3991 95.8752 73.0419C95.871 73.0464 95.8671 73.0503 95.8638 73.0548C95.0532 73.9668 92.095 76.0724 90.5649 76.6976C90.3501 76.7853 90.104 76.6876 90.0076 76.4772L89.478 75.312C89.4214 75.1889 89.4253 75.0582 89.4884 74.938C90.3204 73.3522 91.1375 73.0798 91.5509 70.608C91.8478 68.8375 91.5619 68.2589 91.4008 66.5215C91.4005 66.5176 91.3998 66.5134 91.4001 66.5096C91.2255 63.7605 90.4345 61.4548 91.6625 58.4612C91.8339 58.0436 92.0778 57.5925 92.2865 57.1989C92.3722 57.0367 92.3486 56.8484 92.2257 56.7125C92.1027 56.5763 91.9164 56.5333 91.7459 56.6007C90.4446 57.1141 89.3625 58.0766 88.5946 59.2419C86.5521 62.3428 87.2221 65.4941 87.8066 68.8401Z" fill="#BE292E"/>
                    <path fill-rule="evenodd" clip-rule="evenodd" d="M82.9043 98.8149C80.4649 97.5247 78.2646 95.9553 76.304 94.0261C70.284 88.0997 66.0836 79.9713 65.3516 71.3851C65.3328 71.1692 65.1572 71.0025 64.9391 70.9935C64.7201 70.9848 64.5325 71.1374 64.496 71.3514C63.9626 74.5271 63.8034 77.9955 63.6666 81.3075C63.586 83.2669 61.4973 84.1057 61.3925 86.6473C61.2366 90.4022 65.8672 97.4582 70.6631 97.4913C71.2522 97.4955 71.882 97.4238 72.4714 97.2806C75.3216 96.5895 73.5573 96.3267 76.9396 97.7641C77.7797 98.1213 78.7556 98.5171 79.6792 98.8085C80.1327 98.9521 81.3538 99.2971 82.5966 99.6081C82.8095 99.6615 83.0262 99.5503 83.1045 99.3469C83.1834 99.1436 83.098 98.9171 82.9043 98.8149Z" fill="#242424"/>
                    <path fill-rule="evenodd" clip-rule="evenodd" d="M98.3831 81.5777C98.3983 81.9651 98.3954 82.358 98.3692 82.7561C98.2815 84.1227 97.9758 85.5414 97.4567 86.6604C96.7841 88.1119 96.4552 88.5572 95.3686 89.7327C94.5977 90.5667 93.3727 91.3259 92.0199 91.7393C88.6907 92.7552 86.074 91.6378 84.007 90.3091C83.0553 89.6974 83.1517 89.6595 82.498 89.2241C82.4779 89.211 82.4621 89.1981 82.4443 89.1821L81.1241 87.968L81.118 87.9622C76.8494 83.8789 72.5684 75.2844 73.7207 68.832C74.4909 64.5219 77.6933 61.3308 81.9377 61.2932C82.5772 61.2877 83.1233 61.3308 83.613 61.4172C83.8187 61.4532 84.0174 61.3426 84.0914 61.1489C84.1662 60.9552 84.0934 60.7412 83.9161 60.6317C83.8543 60.5935 83.7906 60.5549 83.7265 60.5154C83.7178 60.5099 83.7107 60.5067 83.702 60.5016C81.3202 59.2502 78.12 58.412 75.3099 58.6556C71.1703 59.0151 68.4664 61.8776 67.5787 65.7411C65.577 74.4468 70.5606 84.9731 75.8178 90.4331C78.9352 93.6692 82.1942 96.2628 86.5415 97.7644C96.8104 101.311 100.901 93.6518 99.7524 84.3261C99.6275 83.3115 99.4564 82.3821 99.2332 81.4607C99.1815 81.2455 98.9754 81.1057 98.7548 81.1362C98.5348 81.1677 98.3747 81.3563 98.3831 81.5777ZM84.7792 69.8745C87.3796 69.5539 90.7998 72.4395 92.4175 76.3195C94.0349 80.1988 93.2385 83.6042 90.6384 83.9248C88.0379 84.2455 84.6184 81.3598 83.001 77.4805C81.3833 73.6006 82.1797 70.1952 84.7792 69.8745Z" stroke="url(#paint3_linear_2_21487)" stroke-width="0.187454" mask="url(#path-5-inside-1_2_21487)"/>
                    <path fill-rule="evenodd" clip-rule="evenodd" d="M118.818 47.2544C113.59 40.7648 106.595 35.4055 99.6453 33.3841C98.6024 33.0814 97.5269 33.4464 97.3111 34.6621C97.1552 35.5401 97.3648 36.7252 98.4552 37.7594C99.6942 38.9346 104.969 39.6674 111.203 45.5582C111.765 44.8604 112.383 43.9576 113.043 43.5457C113.463 43.2836 113.953 43.2624 114.395 43.4879C114.836 43.7131 115.105 44.1211 115.135 44.6133C115.214 45.9279 114.992 47.0922 114.653 48.3439C114.611 48.5585 114.541 48.7975 114.455 49.0445C115.496 50.3004 116.548 51.7127 117.598 53.3081C120.496 57.7146 122.264 62.4507 122.979 66.4681C123.367 68.6454 123.289 71.5872 123.639 72.4922C124.66 75.1279 128.061 75.6586 128.281 73.1431C128.581 69.7348 127.44 64.4846 126.289 60.8916C124.906 56.5786 122.064 51.2831 118.818 47.2544ZM104.091 66.7297C104.172 68.0224 104.201 69.1225 105.053 70.0416C106.622 71.7363 109.166 71.3411 109.193 68.8866C109.229 65.7983 108.705 63.127 106.613 59.763C106.474 59.5391 106.331 59.3209 106.185 59.1086C106.035 59.22 105.886 59.3293 105.744 59.4411C103.705 61.0513 104.15 62.0228 104.167 64.4532C104.172 65.2162 104.149 65.9776 104.091 66.7297ZM107.925 48.3227C105.235 45.9626 102.288 44.1137 99.3539 43.1358C98.1845 42.7445 96.1459 41.7058 95.2217 43.5987C94.5926 44.8877 95.3288 47.0816 97.2043 47.9429L99.394 48.7313C100.093 49.0086 100.774 49.324 101.436 49.6723C102.187 49.5412 102.942 49.4558 103.678 49.4066C105.234 49.1547 106.655 48.8955 107.925 48.3227ZM108.515 55.565C111.277 59.0244 113.067 63.2796 113.494 67.759C113.672 69.6063 113.219 71.096 114.414 72.5668C115.629 74.0606 117.874 74.4471 118.648 72.7149C119.353 71.1374 118.436 65.6084 117.733 63.3429C116.675 59.9377 114.887 56.0565 112.222 52.7876C111.181 53.9329 109.905 54.8723 108.515 55.565Z" stroke="url(#paint4_linear_2_21487)" stroke-width="0.187454" mask="url(#path-5-inside-1_2_21487)"/>
                    <path fill-rule="evenodd" clip-rule="evenodd" d="M111.444 47.3566C109.518 49.3703 107.696 50.0543 105.773 50.4141C103.159 50.9028 100.702 50.8864 98.2272 52.0503C96.1543 53.0302 94.4978 55.0738 93.6509 57.1748C93.463 57.6407 93.3297 58.1104 93.2052 58.6058C92.3813 61.8734 92.84 65.5047 93.2213 68.9262L93.2223 68.9326C93.44 71.1792 93.0363 72.1713 92.6323 72.9642C92.544 73.138 92.5808 73.3417 92.7254 73.4727C92.8704 73.6051 93.0774 73.624 93.2443 73.5212C95.0209 72.4276 96.0262 69.8896 96.3982 68.0803C96.6784 66.7223 96.9161 65.397 97.1591 63.9761C97.4308 62.39 97.9936 59.6981 98.8936 58.4111C99.4179 57.6641 100.089 57.1267 100.846 56.7212C102.61 55.777 104.842 55.5672 106.747 54.8534C109.118 53.9712 111.259 52.3244 112.486 50.1002C112.725 49.6688 113.211 48.6369 113.317 48.0592C113.319 48.047 113.321 48.0364 113.324 48.0248C113.526 47.2837 113.7 46.5544 113.761 45.766C113.775 45.5771 113.67 45.4081 113.493 45.3365C113.317 45.2645 113.123 45.3127 113 45.4579C112.471 46.0863 111.87 46.9113 111.444 47.3566ZM87.8066 68.8401C87.9784 69.8135 87.9334 71.2014 87.7917 72.2979C87.7736 72.4357 87.6982 72.5472 87.5766 72.6162C87.4547 72.6843 87.3201 72.6924 87.1917 72.6362C86.4244 72.3036 85.0878 71.9255 85.1224 73.8563C85.1495 75.4029 85.7211 76.6616 86.3222 77.7857C87.0464 79.1412 89.2771 81.6798 90.2767 80.3388C90.574 79.9398 90.6047 79.3641 90.5585 78.7576C90.5494 78.6358 90.5863 78.5285 90.6684 78.4379C90.7503 78.348 90.8541 78.3007 90.9764 78.2969C92.1241 78.2654 93.4698 77.9554 94.9756 77.4301C95.7522 77.1606 96.4985 76.7815 97.1413 76.4377C101.743 74.0597 102.834 69.2545 102.8 64.4625C102.787 62.611 102.471 60.8733 103.813 59.3996C104.286 58.8798 104.77 58.4095 105.207 58.0207C105.347 57.8948 105.389 57.7011 105.313 57.5286C105.235 57.3557 105.064 57.2561 104.875 57.2754C104.391 57.3246 103.895 57.4152 103.38 57.6047C101.626 58.2508 100.243 59.779 99.7579 61.5653C98.6581 65.6104 99.3772 69.3991 95.8752 73.0419C95.871 73.0464 95.8671 73.0503 95.8638 73.0548C95.0532 73.9668 92.095 76.0724 90.5649 76.6976C90.3501 76.7853 90.104 76.6876 90.0076 76.4772L89.478 75.312C89.4214 75.1889 89.4253 75.0582 89.4884 74.938C90.3204 73.3522 91.1375 73.0798 91.5509 70.608C91.8478 68.8375 91.5619 68.2589 91.4008 66.5215C91.4005 66.5176 91.3998 66.5134 91.4001 66.5096C91.2255 63.7605 90.4345 61.4548 91.6625 58.4612C91.8339 58.0436 92.0778 57.5925 92.2865 57.1989C92.3722 57.0367 92.3486 56.8484 92.2257 56.7125C92.1027 56.5763 91.9164 56.5333 91.7459 56.6007C90.4446 57.1141 89.3625 58.0766 88.5946 59.2419C86.5521 62.3428 87.2221 65.4941 87.8066 68.8401Z" stroke="url(#paint5_linear_2_21487)" stroke-width="0.187454" mask="url(#path-5-inside-1_2_21487)"/>
                    <path fill-rule="evenodd" clip-rule="evenodd" d="M82.9043 98.8149C80.4649 97.5247 78.2646 95.9553 76.304 94.0261C70.284 88.0997 66.0836 79.9713 65.3516 71.3851C65.3328 71.1692 65.1572 71.0025 64.9391 70.9935C64.7201 70.9848 64.5325 71.1374 64.496 71.3514C63.9626 74.5271 63.8034 77.9955 63.6666 81.3075C63.586 83.2669 61.4973 84.1057 61.3925 86.6473C61.2366 90.4022 65.8672 97.4582 70.6631 97.4913C71.2522 97.4955 71.882 97.4238 72.4714 97.2806C75.3216 96.5895 73.5573 96.3267 76.9396 97.7641C77.7797 98.1213 78.7556 98.5171 79.6792 98.8085C80.1327 98.9521 81.3538 99.2971 82.5966 99.6081C82.8095 99.6615 83.0262 99.5503 83.1045 99.3469C83.1834 99.1436 83.098 98.9171 82.9043 98.8149Z" stroke="url(#paint6_linear_2_21487)" stroke-width="0.187454" mask="url(#path-5-inside-1_2_21487)"/>
                    <path d="M41.4711 128.1H50.044V155.233H41.4711V145.93H27.9523V155.233H19.3794V128.1H27.9523V137.402H41.4711V128.1Z" fill="url(#paint7_linear_2_21487)"/>
                    <path d="M73.1236 155.233L71.5409 150.349H61.715L60.1323 155.233H50.7021L60.2642 128.1H72.9917L82.5538 155.233H73.1236ZM63.9572 143.372H69.2987L66.628 135.077L63.9572 143.372Z" fill="url(#paint8_linear_2_21487)"/>
                    <path d="M109.607 141.628C109.607 151.047 105.222 155.621 95.0993 155.621C84.9438 155.621 80.5914 151.086 80.5914 141.628V128.1H89.1643V141.628C89.1643 144.535 90.0545 147.093 95.0993 147.093C100.144 147.093 101.034 144.496 101.034 141.628V128.1H109.607V141.628Z" fill="url(#paint9_linear_2_21487)"/>
                    <path d="M110.594 145.659H119.167C119.167 146.977 120.222 147.868 125.662 147.868C130.74 147.868 131.499 147.481 131.499 146.473C131.499 145.31 130.74 145.155 125.333 144.961C114.913 144.573 110.924 142.558 110.924 136.24C110.924 130.27 115.903 127.712 125.003 127.712C134.005 127.712 139.082 130.27 139.082 137.209H130.509C130.509 135.774 128.531 135.464 124.344 135.464C120.321 135.464 119.497 135.697 119.497 136.744C119.497 137.79 120.321 137.751 125.333 137.984C134.433 138.41 140.071 139.147 140.071 146.24C140.071 153.721 134.796 155.621 125.333 155.621C115.87 155.621 110.594 153.721 110.594 145.659Z" fill="url(#paint10_linear_2_21487)"/>
                    <path d="M161.19 155.233L159.608 150.349H149.782L148.199 155.233H138.769L148.331 128.1H161.058L170.62 155.233H161.19ZM152.024 143.372H157.365L154.695 135.077L152.024 143.372Z" fill="url(#paint11_linear_2_21487)"/>
                    <path d="M33.6858 175.133L32.2868 172.33H24.4715L23.0726 175.133H19.3794L26.1129 161.965H30.6454L37.3976 175.133H33.6858ZM25.7212 169.81H31.0371L28.3885 164.467L25.7212 169.81Z" fill="#270809"/>
                    <path d="M53.3573 168.531C53.3573 173.102 50.8766 175.321 45.1503 175.321C39.4054 175.321 36.9432 173.12 36.9432 168.531V161.965H40.3007V168.531C40.3007 170.374 40.8043 172.481 45.1503 172.481C49.4963 172.481 49.9999 170.355 49.9999 168.531V161.965H53.3573V168.531Z" fill="#270809"/>
                    <path d="M64.2331 161.965C67.6092 161.965 70.575 164.072 70.575 168.549C70.575 173.026 67.6092 175.133 64.2331 175.133H54.7577V161.965H64.2331ZM62.9648 172.293C65.5015 172.293 67.2175 171.747 67.2175 168.549C67.2175 165.351 65.5015 164.806 62.9648 164.806H58.1152V172.293H62.9648Z" fill="#270809"/>
                    <path d="M75.1464 161.965V175.133H71.789V161.965H75.1464Z" fill="#270809"/>
                    <path d="M84.4726 175.321C78.7277 175.321 76.2655 172.913 76.2655 168.531C76.2655 164.166 78.7277 161.777 84.4726 161.777C90.1989 161.777 92.6796 164.185 92.6796 168.531C92.6796 172.895 90.1989 175.321 84.4726 175.321ZM84.4726 172.481C87.9606 172.481 89.3222 171.221 89.3222 168.531C89.3222 165.859 87.9792 164.618 84.4726 164.618C80.966 164.618 79.623 165.841 79.623 168.531C79.623 171.239 80.9846 172.481 84.4726 172.481Z" fill="#270809"/>
                    <path d="M116.971 167.985C118.09 168.681 118.818 169.772 118.818 171.296C118.818 173.515 117.531 175.133 114.565 175.133H102.627V161.965H114.117C117.083 161.965 117.997 163.489 117.997 165.427C117.997 166.348 117.624 167.251 116.971 167.985ZM105.985 164.411V167.139H112.923C113.819 167.139 114.639 167.139 114.639 165.765C114.639 164.411 113.819 164.411 112.905 164.411H105.985ZM113.744 172.518C114.639 172.518 115.46 172.518 115.46 171.126C115.46 169.734 114.639 169.734 113.744 169.734H105.985V172.518H113.744Z" fill="#270809"/>
                    <path d="M123.289 161.965V175.133H119.932V161.965H123.289Z" fill="#270809"/>
                    <path d="M139.121 167.985C140.24 168.681 140.967 169.772 140.967 171.296C140.967 173.515 139.68 175.133 136.715 175.133H124.777V161.965H136.267C139.233 161.965 140.147 163.489 140.147 165.427C140.147 166.348 139.774 167.251 139.121 167.985ZM128.134 164.411V167.139H135.073C135.968 167.139 136.789 167.139 136.789 165.765C136.789 164.411 135.968 164.411 135.055 164.411H128.134ZM135.894 172.518C136.789 172.518 137.61 172.518 137.61 171.126C137.61 169.734 136.789 169.734 135.894 169.734H128.134V172.518H135.894Z" fill="#270809"/>
                    <path d="M145.439 172.293H155.511V175.133H142.082V161.965H145.439V172.293Z" fill="#270809"/>
                    <path d="M170.62 164.655H160.175V167.327H170.62V169.772H160.175V172.443H170.62V175.133H156.818V161.965H170.62V164.655Z" fill="#270809"/>
                    </g>
                    <defs>
                    <linearGradient id="paint0_linear_2_21487" x1="189.5" y1="0.17862" x2="0.355678" y2="4.38312" gradientUnits="userSpaceOnUse">
                    <stop stop-color="#89213C"/>
                    <stop offset="1" stop-color="#BD2F54"/>
                    </linearGradient>
                    <linearGradient id="paint1_linear_2_21487" x1="-95.9495" y1="154.392" x2="282.666" y2="155.057" gradientUnits="userSpaceOnUse">
                    <stop stop-color="#F9F9F9"/>
                    <stop offset="1" stop-color="white" stop-opacity="0.77"/>
                    </linearGradient>
                    <linearGradient id="paint2_linear_2_21487" x1="149.839" y1="11.4658" x2="40.0773" y2="13.9269" gradientUnits="userSpaceOnUse">
                    <stop stop-color="#89213C"/>
                    <stop offset="1" stop-color="#BD2F54"/>
                    </linearGradient>
                    <linearGradient id="paint3_linear_2_21487" x1="128.33" y1="33.2832" x2="61.3387" y2="34.7989" gradientUnits="userSpaceOnUse">
                    <stop stop-color="#89213C"/>
                    <stop offset="1" stop-color="#BD2F54"/>
                    </linearGradient>
                    <linearGradient id="paint4_linear_2_21487" x1="128.33" y1="33.2832" x2="61.3387" y2="34.7989" gradientUnits="userSpaceOnUse">
                    <stop stop-color="#89213C"/>
                    <stop offset="1" stop-color="#BD2F54"/>
                    </linearGradient>
                    <linearGradient id="paint5_linear_2_21487" x1="128.33" y1="33.2832" x2="61.3387" y2="34.7989" gradientUnits="userSpaceOnUse">
                    <stop stop-color="#89213C"/>
                    <stop offset="1" stop-color="#BD2F54"/>
                    </linearGradient>
                    <linearGradient id="paint6_linear_2_21487" x1="128.33" y1="33.2832" x2="61.3387" y2="34.7989" gradientUnits="userSpaceOnUse">
                    <stop stop-color="#89213C"/>
                    <stop offset="1" stop-color="#BD2F54"/>
                    </linearGradient>
                    <linearGradient id="paint7_linear_2_21487" x1="170.62" y1="127.712" x2="21.3924" y2="145.844" gradientUnits="userSpaceOnUse">
                    <stop stop-color="#89213C"/>
                    <stop offset="1" stop-color="#BD2F54"/>
                    </linearGradient>
                    <linearGradient id="paint8_linear_2_21487" x1="170.62" y1="127.712" x2="21.3924" y2="145.844" gradientUnits="userSpaceOnUse">
                    <stop stop-color="#89213C"/>
                    <stop offset="1" stop-color="#BD2F54"/>
                    </linearGradient>
                    <linearGradient id="paint9_linear_2_21487" x1="170.62" y1="127.712" x2="21.3924" y2="145.844" gradientUnits="userSpaceOnUse">
                    <stop stop-color="#89213C"/>
                    <stop offset="1" stop-color="#BD2F54"/>
                    </linearGradient>
                    <linearGradient id="paint10_linear_2_21487" x1="170.62" y1="127.712" x2="21.3924" y2="145.844" gradientUnits="userSpaceOnUse">
                    <stop stop-color="#89213C"/>
                    <stop offset="1" stop-color="#BD2F54"/>
                    </linearGradient>
                    <linearGradient id="paint11_linear_2_21487" x1="170.62" y1="127.712" x2="21.3924" y2="145.844" gradientUnits="userSpaceOnUse">
                    <stop stop-color="#89213C"/>
                    <stop offset="1" stop-color="#BD2F54"/>
                    </linearGradient>
                    <clipPath id="clip0_2_21487">
                    <rect x="0.5" y="0.178711" width="189" height="190.642" rx="10.2606" fill="white"/>
                    </clipPath>
                    </defs>
                    </svg>