 <svg width="auto" height="auto" viewBox="0 0 189 192" fill="none" xmlns="http://www.w3.org/2000/svg">
                  <g clip-path="url(#clip0_2_21506)">
                  <path d="M189 0.678711H0V191.32H189V0.678711Z" fill="url(#paint0_linear_2_21506)"/>
                  <ellipse cx="92.8586" cy="180.239" rx="189.308" ry="100.759" fill="url(#paint1_linear_2_21506)"/>
                  <path d="M94.5 14.0176C123.654 14.0177 147.287 37.652 147.287 66.8057C147.287 95.9592 123.654 119.593 94.5 119.593C65.3464 119.593 41.712 95.9593 41.7119 66.8057C41.7119 37.6519 65.3463 14.0176 94.5 14.0176Z" fill="white" stroke="url(#paint2_linear_2_21506)" stroke-width="4.10423"/>
                  <mask id="path-5-inside-1_2_21506" fill="white">
                  <path fill-rule="evenodd" clip-rule="evenodd" d="M97.8831 82.0777C97.8983 82.4651 97.8954 82.858 97.8692 83.2561C97.7815 84.6227 97.4758 86.0414 96.9567 87.1604C96.2841 88.6119 95.9552 89.0572 94.8686 90.2327C94.0977 91.0667 92.8727 91.8259 91.5199 92.2393C88.1907 93.2552 85.574 92.1378 83.507 90.8091C82.5553 90.1974 82.6517 90.1595 81.998 89.7241C81.9779 89.711 81.9621 89.6981 81.9443 89.6821L80.6241 88.468L80.618 88.4622C76.3494 84.3789 72.0684 75.7844 73.2207 69.332C73.9909 65.0219 77.1933 61.8308 81.4377 61.7932C82.0772 61.7877 82.6233 61.8308 83.113 61.9172C83.3187 61.9532 83.5174 61.8426 83.5914 61.6489C83.6662 61.4552 83.5934 61.2412 83.4161 61.1317C83.3543 61.0935 83.2906 61.0549 83.2265 61.0154C83.2178 61.0099 83.2107 61.0067 83.202 61.0016C80.8202 59.7502 77.62 58.912 74.8099 59.1556C70.6703 59.5151 67.9664 62.3776 67.0787 66.2411C65.077 74.9468 70.0606 85.4731 75.3178 90.9331C78.4352 94.1692 81.6942 96.7628 86.0415 98.2644C96.3104 101.811 100.401 94.1518 99.2524 84.8261C99.1275 83.8115 98.9564 82.8821 98.7332 81.9607C98.6815 81.7455 98.4754 81.6057 98.2548 81.6362C98.0348 81.6677 97.8747 81.8563 97.8831 82.0777ZM84.2792 70.3745C86.8796 70.0539 90.2998 72.9395 91.9175 76.8195C93.5349 80.6988 92.7385 84.1042 90.1384 84.4248C87.5379 84.7455 84.1184 81.8598 82.501 77.9805C80.8833 74.1006 81.6797 70.6952 84.2792 70.3745Z"/>
                  <path fill-rule="evenodd" clip-rule="evenodd" d="M118.318 47.7544C113.09 41.2648 106.095 35.9055 99.1453 33.8841C98.1024 33.5814 97.0269 33.9464 96.8111 35.1621C96.6552 36.0401 96.8648 37.2252 97.9552 38.2594C99.1942 39.4346 104.469 40.1674 110.703 46.0582C111.265 45.3604 111.883 44.4576 112.543 44.0457C112.963 43.7836 113.453 43.7624 113.895 43.9879C114.336 44.2131 114.605 44.6211 114.635 45.1133C114.714 46.4279 114.492 47.5922 114.153 48.8439C114.111 49.0585 114.041 49.2975 113.955 49.5445C114.996 50.8004 116.048 52.2127 117.098 53.8081C119.996 58.2146 121.764 62.9507 122.479 66.9681C122.867 69.1454 122.789 72.0872 123.139 72.9922C124.16 75.6279 127.561 76.1586 127.781 73.6431C128.081 70.2348 126.94 64.9846 125.789 61.3916C124.406 57.0786 121.564 51.7831 118.318 47.7544ZM103.591 67.2297C103.672 68.5224 103.701 69.6225 104.553 70.5416C106.122 72.2363 108.666 71.8411 108.693 69.3866C108.729 66.2983 108.205 63.627 106.113 60.263C105.974 60.0391 105.831 59.8209 105.685 59.6086C105.535 59.72 105.386 59.8293 105.244 59.9411C103.205 61.5513 103.65 62.5228 103.667 64.9532C103.672 65.7162 103.649 66.4776 103.591 67.2297ZM107.425 48.8227C104.735 46.4626 101.788 44.6137 98.8539 43.6358C97.6845 43.2445 95.6459 42.2058 94.7217 44.0987C94.0926 45.3877 94.8288 47.5816 96.7043 48.4429L98.894 49.2313C99.5934 49.5086 100.274 49.824 100.936 50.1723C101.687 50.0412 102.442 49.9558 103.178 49.9066C104.734 49.6547 106.155 49.3955 107.425 48.8227ZM108.015 56.065C110.777 59.5244 112.567 63.7796 112.994 68.259C113.172 70.1063 112.719 71.596 113.914 73.0668C115.129 74.5606 117.374 74.9471 118.148 73.2149C118.853 71.6374 117.936 66.1084 117.233 63.8429C116.175 60.4377 114.387 56.5565 111.722 53.2876C110.681 54.4329 109.405 55.3723 108.015 56.065Z"/>
                  <path fill-rule="evenodd" clip-rule="evenodd" d="M110.944 47.8566C109.018 49.8703 107.196 50.5543 105.273 50.9141C102.659 51.4028 100.202 51.3864 97.7272 52.5503C95.6543 53.5302 93.9978 55.5738 93.1509 57.6748C92.963 58.1407 92.8297 58.6104 92.7052 59.1058C91.8813 62.3734 92.34 66.0047 92.7213 69.4262L92.7223 69.4326C92.94 71.6792 92.5363 72.6713 92.1323 73.4642C92.044 73.638 92.0808 73.8417 92.2254 73.9727C92.3704 74.1051 92.5774 74.124 92.7443 74.0212C94.5209 72.9276 95.5262 70.3896 95.8982 68.5803C96.1784 67.2223 96.4161 65.897 96.6591 64.4761C96.9308 62.89 97.4936 60.1981 98.3936 58.9111C98.9179 58.1641 99.5895 57.6267 100.346 57.2212C102.11 56.277 104.342 56.0672 106.247 55.3534C108.618 54.4712 110.759 52.8244 111.986 50.6002C112.225 50.1688 112.711 49.1369 112.817 48.5592C112.819 48.547 112.821 48.5364 112.824 48.5248C113.026 47.7837 113.2 47.0544 113.261 46.266C113.275 46.0771 113.17 45.9081 112.993 45.8365C112.817 45.7645 112.623 45.8127 112.5 45.9579C111.971 46.5863 111.37 47.4113 110.944 47.8566ZM87.3066 69.3401C87.4784 70.3135 87.4334 71.7014 87.2917 72.7979C87.2736 72.9357 87.1982 73.0472 87.0766 73.1162C86.9547 73.1843 86.8201 73.1924 86.6917 73.1362C85.9244 72.8036 84.5878 72.4255 84.6224 74.3563C84.6495 75.9029 85.2211 77.1616 85.8222 78.2857C86.5464 79.6412 88.7771 82.1798 89.7767 80.8388C90.074 80.4398 90.1047 79.8641 90.0585 79.2576C90.0494 79.1358 90.0863 79.0285 90.1684 78.9379C90.2503 78.848 90.3541 78.8007 90.4764 78.7969C91.6241 78.7654 92.9698 78.4554 94.4756 77.9301C95.2522 77.6606 95.9985 77.2815 96.6413 76.9377C101.243 74.5597 102.334 69.7545 102.3 64.9625C102.287 63.111 101.971 61.3733 103.313 59.8996C103.786 59.3798 104.27 58.9095 104.707 58.5207C104.847 58.3948 104.889 58.2011 104.813 58.0286C104.735 57.8557 104.564 57.7561 104.375 57.7754C103.891 57.8246 103.395 57.9152 102.88 58.1047C101.126 58.7508 99.7431 60.279 99.2579 62.0653C98.1581 66.1104 98.8772 69.8991 95.3752 73.5419C95.371 73.5464 95.3671 73.5503 95.3638 73.5548C94.5532 74.4668 91.595 76.5724 90.0649 77.1976C89.8501 77.2853 89.604 77.1876 89.5076 76.9772L88.978 75.812C88.9214 75.6889 88.9253 75.5582 88.9884 75.438C89.8204 73.8522 90.6375 73.5798 91.0509 71.108C91.3478 69.3375 91.0619 68.7589 90.9008 67.0215C90.9005 67.0176 90.8998 67.0134 90.9001 67.0096C90.7255 64.2605 89.9345 61.9548 91.1625 58.9612C91.3339 58.5436 91.5778 58.0925 91.7865 57.6989C91.8722 57.5367 91.8486 57.3484 91.7257 57.2125C91.6027 57.0763 91.4164 57.0333 91.2459 57.1007C89.9446 57.6141 88.8625 58.5766 88.0946 59.7419C86.0521 62.8428 86.7221 65.9941 87.3066 69.3401Z"/>
                  <path fill-rule="evenodd" clip-rule="evenodd" d="M82.4043 99.3149C79.9649 98.0247 77.7646 96.4553 75.804 94.5261C69.784 88.5997 65.5836 80.4713 64.8516 71.8851C64.8328 71.6692 64.6572 71.5025 64.4391 71.4935C64.2201 71.4848 64.0325 71.6374 63.996 71.8514C63.4626 75.0271 63.3034 78.4955 63.1666 81.8075C63.086 83.7669 60.9973 84.6057 60.8925 87.1473C60.7366 90.9022 65.3672 97.9582 70.1631 97.9913C70.7522 97.9955 71.382 97.9238 71.9714 97.7806C74.8216 97.0895 73.0573 96.8267 76.4396 98.2641C77.2797 98.6213 78.2556 99.0171 79.1792 99.3085C79.6327 99.4521 80.8538 99.7971 82.0966 100.108C82.3095 100.161 82.5262 100.05 82.6045 99.8469C82.6834 99.6436 82.598 99.4171 82.4043 99.3149Z"/>
                  </mask>
                  <path fill-rule="evenodd" clip-rule="evenodd" d="M97.8831 82.0777C97.8983 82.4651 97.8954 82.858 97.8692 83.2561C97.7815 84.6227 97.4758 86.0414 96.9567 87.1604C96.2841 88.6119 95.9552 89.0572 94.8686 90.2327C94.0977 91.0667 92.8727 91.8259 91.5199 92.2393C88.1907 93.2552 85.574 92.1378 83.507 90.8091C82.5553 90.1974 82.6517 90.1595 81.998 89.7241C81.9779 89.711 81.9621 89.6981 81.9443 89.6821L80.6241 88.468L80.618 88.4622C76.3494 84.3789 72.0684 75.7844 73.2207 69.332C73.9909 65.0219 77.1933 61.8308 81.4377 61.7932C82.0772 61.7877 82.6233 61.8308 83.113 61.9172C83.3187 61.9532 83.5174 61.8426 83.5914 61.6489C83.6662 61.4552 83.5934 61.2412 83.4161 61.1317C83.3543 61.0935 83.2906 61.0549 83.2265 61.0154C83.2178 61.0099 83.2107 61.0067 83.202 61.0016C80.8202 59.7502 77.62 58.912 74.8099 59.1556C70.6703 59.5151 67.9664 62.3776 67.0787 66.2411C65.077 74.9468 70.0606 85.4731 75.3178 90.9331C78.4352 94.1692 81.6942 96.7628 86.0415 98.2644C96.3104 101.811 100.401 94.1518 99.2524 84.8261C99.1275 83.8115 98.9564 82.8821 98.7332 81.9607C98.6815 81.7455 98.4754 81.6057 98.2548 81.6362C98.0348 81.6677 97.8747 81.8563 97.8831 82.0777ZM84.2792 70.3745C86.8796 70.0539 90.2998 72.9395 91.9175 76.8195C93.5349 80.6988 92.7385 84.1042 90.1384 84.4248C87.5379 84.7455 84.1184 81.8598 82.501 77.9805C80.8833 74.1006 81.6797 70.6952 84.2792 70.3745Z" fill="#242424"/>
                  <path fill-rule="evenodd" clip-rule="evenodd" d="M118.318 47.7544C113.09 41.2648 106.095 35.9055 99.1453 33.8841C98.1024 33.5814 97.0269 33.9464 96.8111 35.1621C96.6552 36.0401 96.8648 37.2252 97.9552 38.2594C99.1942 39.4346 104.469 40.1674 110.703 46.0582C111.265 45.3604 111.883 44.4576 112.543 44.0457C112.963 43.7836 113.453 43.7624 113.895 43.9879C114.336 44.2131 114.605 44.6211 114.635 45.1133C114.714 46.4279 114.492 47.5922 114.153 48.8439C114.111 49.0585 114.041 49.2975 113.955 49.5445C114.996 50.8004 116.048 52.2127 117.098 53.8081C119.996 58.2146 121.764 62.9507 122.479 66.9681C122.867 69.1454 122.789 72.0872 123.139 72.9922C124.16 75.6279 127.561 76.1586 127.781 73.6431C128.081 70.2348 126.94 64.9846 125.789 61.3916C124.406 57.0786 121.564 51.7831 118.318 47.7544ZM103.591 67.2297C103.672 68.5224 103.701 69.6225 104.553 70.5416C106.122 72.2363 108.666 71.8411 108.693 69.3866C108.729 66.2983 108.205 63.627 106.113 60.263C105.974 60.0391 105.831 59.8209 105.685 59.6086C105.535 59.72 105.386 59.8293 105.244 59.9411C103.205 61.5513 103.65 62.5228 103.667 64.9532C103.672 65.7162 103.649 66.4776 103.591 67.2297ZM107.425 48.8227C104.735 46.4626 101.788 44.6137 98.8539 43.6358C97.6845 43.2445 95.6459 42.2058 94.7217 44.0987C94.0926 45.3877 94.8288 47.5816 96.7043 48.4429L98.894 49.2313C99.5934 49.5086 100.274 49.824 100.936 50.1723C101.687 50.0412 102.442 49.9558 103.178 49.9066C104.734 49.6547 106.155 49.3955 107.425 48.8227ZM108.015 56.065C110.777 59.5244 112.567 63.7796 112.994 68.259C113.172 70.1063 112.719 71.596 113.914 73.0668C115.129 74.5606 117.374 74.9471 118.148 73.2149C118.853 71.6374 117.936 66.1084 117.233 63.8429C116.175 60.4377 114.387 56.5565 111.722 53.2876C110.681 54.4329 109.405 55.3723 108.015 56.065Z" fill="#CDCDCD"/>
                  <path fill-rule="evenodd" clip-rule="evenodd" d="M110.944 47.8566C109.018 49.8703 107.196 50.5543 105.273 50.9141C102.659 51.4028 100.202 51.3864 97.7272 52.5503C95.6543 53.5302 93.9978 55.5738 93.1509 57.6748C92.963 58.1407 92.8297 58.6104 92.7052 59.1058C91.8813 62.3734 92.34 66.0047 92.7213 69.4262L92.7223 69.4326C92.94 71.6792 92.5363 72.6713 92.1323 73.4642C92.044 73.638 92.0808 73.8417 92.2254 73.9727C92.3704 74.1051 92.5774 74.124 92.7443 74.0212C94.5209 72.9276 95.5262 70.3896 95.8982 68.5803C96.1784 67.2223 96.4161 65.897 96.6591 64.4761C96.9308 62.89 97.4936 60.1981 98.3936 58.9111C98.9179 58.1641 99.5895 57.6267 100.346 57.2212C102.11 56.277 104.342 56.0672 106.247 55.3534C108.618 54.4712 110.759 52.8244 111.986 50.6002C112.225 50.1688 112.711 49.1369 112.817 48.5592C112.819 48.547 112.821 48.5364 112.824 48.5248C113.026 47.7837 113.2 47.0544 113.261 46.266C113.275 46.0771 113.17 45.9081 112.993 45.8365C112.817 45.7645 112.623 45.8127 112.5 45.9579C111.971 46.5863 111.37 47.4113 110.944 47.8566ZM87.3066 69.3401C87.4784 70.3135 87.4334 71.7014 87.2917 72.7979C87.2736 72.9357 87.1982 73.0472 87.0766 73.1162C86.9547 73.1843 86.8201 73.1924 86.6917 73.1362C85.9244 72.8036 84.5878 72.4255 84.6224 74.3563C84.6495 75.9029 85.2211 77.1616 85.8222 78.2857C86.5464 79.6412 88.7771 82.1798 89.7767 80.8388C90.074 80.4398 90.1047 79.8641 90.0585 79.2576C90.0494 79.1358 90.0863 79.0285 90.1684 78.9379C90.2503 78.848 90.3541 78.8007 90.4764 78.7969C91.6241 78.7654 92.9698 78.4554 94.4756 77.9301C95.2522 77.6606 95.9985 77.2815 96.6413 76.9377C101.243 74.5597 102.334 69.7545 102.3 64.9625C102.287 63.111 101.971 61.3733 103.313 59.8996C103.786 59.3798 104.27 58.9095 104.707 58.5207C104.847 58.3948 104.889 58.2011 104.813 58.0286C104.735 57.8557 104.564 57.7561 104.375 57.7754C103.891 57.8246 103.395 57.9152 102.88 58.1047C101.126 58.7508 99.7431 60.279 99.2579 62.0653C98.1581 66.1104 98.8772 69.8991 95.3752 73.5419C95.371 73.5464 95.3671 73.5503 95.3638 73.5548C94.5532 74.4668 91.595 76.5724 90.0649 77.1976C89.8501 77.2853 89.604 77.1876 89.5076 76.9772L88.978 75.812C88.9214 75.6889 88.9253 75.5582 88.9884 75.438C89.8204 73.8522 90.6375 73.5798 91.0509 71.108C91.3478 69.3375 91.0619 68.7589 90.9008 67.0215C90.9005 67.0176 90.8998 67.0134 90.9001 67.0096C90.7255 64.2605 89.9345 61.9548 91.1625 58.9612C91.3339 58.5436 91.5778 58.0925 91.7865 57.6989C91.8722 57.5367 91.8486 57.3484 91.7257 57.2125C91.6027 57.0763 91.4164 57.0333 91.2459 57.1007C89.9446 57.6141 88.8625 58.5766 88.0946 59.7419C86.0521 62.8428 86.7221 65.9941 87.3066 69.3401Z" fill="#BE292E"/>
                  <path fill-rule="evenodd" clip-rule="evenodd" d="M82.4043 99.3149C79.9649 98.0247 77.7646 96.4553 75.804 94.5261C69.784 88.5997 65.5836 80.4713 64.8516 71.8851C64.8328 71.6692 64.6572 71.5025 64.4391 71.4935C64.2201 71.4848 64.0325 71.6374 63.996 71.8514C63.4626 75.0271 63.3034 78.4955 63.1666 81.8075C63.086 83.7669 60.9973 84.6057 60.8925 87.1473C60.7366 90.9022 65.3672 97.9582 70.1631 97.9913C70.7522 97.9955 71.382 97.9238 71.9714 97.7806C74.8216 97.0895 73.0573 96.8267 76.4396 98.2641C77.2797 98.6213 78.2556 99.0171 79.1792 99.3085C79.6327 99.4521 80.8538 99.7971 82.0966 100.108C82.3095 100.161 82.5262 100.05 82.6045 99.8469C82.6834 99.6436 82.598 99.4171 82.4043 99.3149Z" fill="#242424"/>
                  <path fill-rule="evenodd" clip-rule="evenodd" d="M97.8831 82.0777C97.8983 82.4651 97.8954 82.858 97.8692 83.2561C97.7815 84.6227 97.4758 86.0414 96.9567 87.1604C96.2841 88.6119 95.9552 89.0572 94.8686 90.2327C94.0977 91.0667 92.8727 91.8259 91.5199 92.2393C88.1907 93.2552 85.574 92.1378 83.507 90.8091C82.5553 90.1974 82.6517 90.1595 81.998 89.7241C81.9779 89.711 81.9621 89.6981 81.9443 89.6821L80.6241 88.468L80.618 88.4622C76.3494 84.3789 72.0684 75.7844 73.2207 69.332C73.9909 65.0219 77.1933 61.8308 81.4377 61.7932C82.0772 61.7877 82.6233 61.8308 83.113 61.9172C83.3187 61.9532 83.5174 61.8426 83.5914 61.6489C83.6662 61.4552 83.5934 61.2412 83.4161 61.1317C83.3543 61.0935 83.2906 61.0549 83.2265 61.0154C83.2178 61.0099 83.2107 61.0067 83.202 61.0016C80.8202 59.7502 77.62 58.912 74.8099 59.1556C70.6703 59.5151 67.9664 62.3776 67.0787 66.2411C65.077 74.9468 70.0606 85.4731 75.3178 90.9331C78.4352 94.1692 81.6942 96.7628 86.0415 98.2644C96.3104 101.811 100.401 94.1518 99.2524 84.8261C99.1275 83.8115 98.9564 82.8821 98.7332 81.9607C98.6815 81.7455 98.4754 81.6057 98.2548 81.6362C98.0348 81.6677 97.8747 81.8563 97.8831 82.0777ZM84.2792 70.3745C86.8796 70.0539 90.2998 72.9395 91.9175 76.8195C93.5349 80.6988 92.7385 84.1042 90.1384 84.4248C87.5379 84.7455 84.1184 81.8598 82.501 77.9805C80.8833 74.1006 81.6797 70.6952 84.2792 70.3745Z" stroke="url(#paint3_linear_2_21506)" stroke-width="0.187454" mask="url(#path-5-inside-1_2_21506)"/>
                  <path fill-rule="evenodd" clip-rule="evenodd" d="M118.318 47.7544C113.09 41.2648 106.095 35.9055 99.1453 33.8841C98.1024 33.5814 97.0269 33.9464 96.8111 35.1621C96.6552 36.0401 96.8648 37.2252 97.9552 38.2594C99.1942 39.4346 104.469 40.1674 110.703 46.0582C111.265 45.3604 111.883 44.4576 112.543 44.0457C112.963 43.7836 113.453 43.7624 113.895 43.9879C114.336 44.2131 114.605 44.6211 114.635 45.1133C114.714 46.4279 114.492 47.5922 114.153 48.8439C114.111 49.0585 114.041 49.2975 113.955 49.5445C114.996 50.8004 116.048 52.2127 117.098 53.8081C119.996 58.2146 121.764 62.9507 122.479 66.9681C122.867 69.1454 122.789 72.0872 123.139 72.9922C124.16 75.6279 127.561 76.1586 127.781 73.6431C128.081 70.2348 126.94 64.9846 125.789 61.3916C124.406 57.0786 121.564 51.7831 118.318 47.7544ZM103.591 67.2297C103.672 68.5224 103.701 69.6225 104.553 70.5416C106.122 72.2363 108.666 71.8411 108.693 69.3866C108.729 66.2983 108.205 63.627 106.113 60.263C105.974 60.0391 105.831 59.8209 105.685 59.6086C105.535 59.72 105.386 59.8293 105.244 59.9411C103.205 61.5513 103.65 62.5228 103.667 64.9532C103.672 65.7162 103.649 66.4776 103.591 67.2297ZM107.425 48.8227C104.735 46.4626 101.788 44.6137 98.8539 43.6358C97.6845 43.2445 95.6459 42.2058 94.7217 44.0987C94.0926 45.3877 94.8288 47.5816 96.7043 48.4429L98.894 49.2313C99.5934 49.5086 100.274 49.824 100.936 50.1723C101.687 50.0412 102.442 49.9558 103.178 49.9066C104.734 49.6547 106.155 49.3955 107.425 48.8227ZM108.015 56.065C110.777 59.5244 112.567 63.7796 112.994 68.259C113.172 70.1063 112.719 71.596 113.914 73.0668C115.129 74.5606 117.374 74.9471 118.148 73.2149C118.853 71.6374 117.936 66.1084 117.233 63.8429C116.175 60.4377 114.387 56.5565 111.722 53.2876C110.681 54.4329 109.405 55.3723 108.015 56.065Z" stroke="url(#paint4_linear_2_21506)" stroke-width="0.187454" mask="url(#path-5-inside-1_2_21506)"/>
                  <path fill-rule="evenodd" clip-rule="evenodd" d="M110.944 47.8566C109.018 49.8703 107.196 50.5543 105.273 50.9141C102.659 51.4028 100.202 51.3864 97.7272 52.5503C95.6543 53.5302 93.9978 55.5738 93.1509 57.6748C92.963 58.1407 92.8297 58.6104 92.7052 59.1058C91.8813 62.3734 92.34 66.0047 92.7213 69.4262L92.7223 69.4326C92.94 71.6792 92.5363 72.6713 92.1323 73.4642C92.044 73.638 92.0808 73.8417 92.2254 73.9727C92.3704 74.1051 92.5774 74.124 92.7443 74.0212C94.5209 72.9276 95.5262 70.3896 95.8982 68.5803C96.1784 67.2223 96.4161 65.897 96.6591 64.4761C96.9308 62.89 97.4936 60.1981 98.3936 58.9111C98.9179 58.1641 99.5895 57.6267 100.346 57.2212C102.11 56.277 104.342 56.0672 106.247 55.3534C108.618 54.4712 110.759 52.8244 111.986 50.6002C112.225 50.1688 112.711 49.1369 112.817 48.5592C112.819 48.547 112.821 48.5364 112.824 48.5248C113.026 47.7837 113.2 47.0544 113.261 46.266C113.275 46.0771 113.17 45.9081 112.993 45.8365C112.817 45.7645 112.623 45.8127 112.5 45.9579C111.971 46.5863 111.37 47.4113 110.944 47.8566ZM87.3066 69.3401C87.4784 70.3135 87.4334 71.7014 87.2917 72.7979C87.2736 72.9357 87.1982 73.0472 87.0766 73.1162C86.9547 73.1843 86.8201 73.1924 86.6917 73.1362C85.9244 72.8036 84.5878 72.4255 84.6224 74.3563C84.6495 75.9029 85.2211 77.1616 85.8222 78.2857C86.5464 79.6412 88.7771 82.1798 89.7767 80.8388C90.074 80.4398 90.1047 79.8641 90.0585 79.2576C90.0494 79.1358 90.0863 79.0285 90.1684 78.9379C90.2503 78.848 90.3541 78.8007 90.4764 78.7969C91.6241 78.7654 92.9698 78.4554 94.4756 77.9301C95.2522 77.6606 95.9985 77.2815 96.6413 76.9377C101.243 74.5597 102.334 69.7545 102.3 64.9625C102.287 63.111 101.971 61.3733 103.313 59.8996C103.786 59.3798 104.27 58.9095 104.707 58.5207C104.847 58.3948 104.889 58.2011 104.813 58.0286C104.735 57.8557 104.564 57.7561 104.375 57.7754C103.891 57.8246 103.395 57.9152 102.88 58.1047C101.126 58.7508 99.7431 60.279 99.2579 62.0653C98.1581 66.1104 98.8772 69.8991 95.3752 73.5419C95.371 73.5464 95.3671 73.5503 95.3638 73.5548C94.5532 74.4668 91.595 76.5724 90.0649 77.1976C89.8501 77.2853 89.604 77.1876 89.5076 76.9772L88.978 75.812C88.9214 75.6889 88.9253 75.5582 88.9884 75.438C89.8204 73.8522 90.6375 73.5798 91.0509 71.108C91.3478 69.3375 91.0619 68.7589 90.9008 67.0215C90.9005 67.0176 90.8998 67.0134 90.9001 67.0096C90.7255 64.2605 89.9345 61.9548 91.1625 58.9612C91.3339 58.5436 91.5778 58.0925 91.7865 57.6989C91.8722 57.5367 91.8486 57.3484 91.7257 57.2125C91.6027 57.0763 91.4164 57.0333 91.2459 57.1007C89.9446 57.6141 88.8625 58.5766 88.0946 59.7419C86.0521 62.8428 86.7221 65.9941 87.3066 69.3401Z" stroke="url(#paint5_linear_2_21506)" stroke-width="0.187454" mask="url(#path-5-inside-1_2_21506)"/>
                  <path fill-rule="evenodd" clip-rule="evenodd" d="M82.4043 99.3149C79.9649 98.0247 77.7646 96.4553 75.804 94.5261C69.784 88.5997 65.5836 80.4713 64.8516 71.8851C64.8328 71.6692 64.6572 71.5025 64.4391 71.4935C64.2201 71.4848 64.0325 71.6374 63.996 71.8514C63.4626 75.0271 63.3034 78.4955 63.1666 81.8075C63.086 83.7669 60.9973 84.6057 60.8925 87.1473C60.7366 90.9022 65.3672 97.9582 70.1631 97.9913C70.7522 97.9955 71.382 97.9238 71.9714 97.7806C74.8216 97.0895 73.0573 96.8267 76.4396 98.2641C77.2797 98.6213 78.2556 99.0171 79.1792 99.3085C79.6327 99.4521 80.8538 99.7971 82.0966 100.108C82.3095 100.161 82.5262 100.05 82.6045 99.8469C82.6834 99.6436 82.598 99.4171 82.4043 99.3149Z" stroke="url(#paint6_linear_2_21506)" stroke-width="0.187454" mask="url(#path-5-inside-1_2_21506)"/>
                  <path d="M39.0465 128.6C44.8767 128.6 48.8735 132.941 48.8735 138.988C48.8735 145.035 44.8767 149.376 39.0465 149.376H28.413V155.733H18.8794V128.6H39.0465ZM37.2132 140.848C38.1665 140.848 39.3399 140.848 39.3399 138.988C39.3399 137.127 38.1665 137.127 37.2132 137.127H28.413V140.848H37.2132Z" fill="url(#paint7_linear_2_21506)"/>
                  <path d="M59.4944 128.6V155.733H49.9609V128.6H59.4944Z" fill="url(#paint8_linear_2_21506)"/>
                  <path d="M80.0211 128.6C86.2179 128.6 92.0481 132.941 92.0481 142.166C92.0481 151.392 86.2179 155.733 80.0211 155.733H60.954V128.6H80.0211ZM77.0877 147.205C79.1411 147.205 82.5145 147.205 82.5145 142.166C82.5145 137.127 79.1411 137.127 77.0877 137.127H70.4875V147.205H77.0877Z" fill="url(#paint9_linear_2_21506)"/>
                  <path d="M108.289 146.391V140.965H124.936V155.733H119.436L118.739 151.818C116.576 154.493 113.203 156.121 107.813 156.121C98.3523 156.121 92.7788 151.586 92.7788 142.128C92.7788 132.708 98.3523 128.212 108.913 128.212C119.179 128.212 124.533 132.011 124.936 139.414H115.183C114.816 138.019 112.946 136.74 108.913 136.74C103.266 136.74 102.312 139.259 102.312 142.515C102.312 145.81 103.302 148.756 108.913 148.756C112.579 148.756 114.816 148.213 115.183 146.391H108.289Z" fill="url(#paint10_linear_2_21506)"/>
                  <path d="M135.587 128.6V155.733H126.053V128.6H135.587Z" fill="url(#paint11_linear_2_21506)"/>
                  <path d="M160.587 128.6H170.12V155.733H157.653L146.58 139.724V155.733H137.046V128.6H149.513L160.587 144.608V128.6Z" fill="url(#paint12_linear_2_21506)"/>
                  <path d="M33.1858 175.633L31.7868 172.83H23.9715L22.5726 175.633H18.8794L25.6129 162.465H30.1454L36.8976 175.633H33.1858ZM25.2212 170.31H30.5371L27.8885 164.967L25.2212 170.31Z" fill="#270809"/>
                  <path d="M52.8573 169.031C52.8573 173.602 50.3766 175.821 44.6503 175.821C38.9054 175.821 36.4432 173.62 36.4432 169.031V162.465H39.8007V169.031C39.8007 170.874 40.3043 172.981 44.6503 172.981C48.9963 172.981 49.4999 170.855 49.4999 169.031V162.465H52.8573V169.031Z" fill="#270809"/>
                  <path d="M63.7331 162.465C67.1092 162.465 70.075 164.572 70.075 169.049C70.075 173.526 67.1092 175.633 63.7331 175.633H54.2577V162.465H63.7331ZM62.4648 172.793C65.0015 172.793 66.7175 172.247 66.7175 169.049C66.7175 165.851 65.0015 165.306 62.4648 165.306H57.6152V172.793H62.4648Z" fill="#270809"/>
                  <path d="M74.6464 162.465V175.633H71.289V162.465H74.6464Z" fill="#270809"/>
                  <path d="M83.9726 175.821C78.2277 175.821 75.7655 173.413 75.7655 169.031C75.7655 164.666 78.2277 162.277 83.9726 162.277C89.6989 162.277 92.1796 164.685 92.1796 169.031C92.1796 173.395 89.6989 175.821 83.9726 175.821ZM83.9726 172.981C87.4606 172.981 88.8222 171.721 88.8222 169.031C88.8222 166.359 87.4792 165.118 83.9726 165.118C80.466 165.118 79.123 166.341 79.123 169.031C79.123 171.739 80.4846 172.981 83.9726 172.981Z" fill="#270809"/>
                  <path d="M116.471 168.485C117.59 169.181 118.318 170.272 118.318 171.796C118.318 174.015 117.031 175.633 114.065 175.633H102.127V162.465H113.617C116.583 162.465 117.497 163.989 117.497 165.927C117.497 166.848 117.124 167.751 116.471 168.485ZM105.485 164.911V167.639H112.423C113.319 167.639 114.139 167.639 114.139 166.265C114.139 164.911 113.319 164.911 112.405 164.911H105.485ZM113.244 173.018C114.139 173.018 114.96 173.018 114.96 171.626C114.96 170.234 114.139 170.234 113.244 170.234H105.485V173.018H113.244Z" fill="#270809"/>
                  <path d="M122.789 162.465V175.633H119.432V162.465H122.789Z" fill="#270809"/>
                  <path d="M138.621 168.485C139.74 169.181 140.467 170.272 140.467 171.796C140.467 174.015 139.18 175.633 136.215 175.633H124.277V162.465H135.767C138.733 162.465 139.647 163.989 139.647 165.927C139.647 166.848 139.274 167.751 138.621 168.485ZM127.634 164.911V167.639H134.573C135.468 167.639 136.289 167.639 136.289 166.265C136.289 164.911 135.468 164.911 134.555 164.911H127.634ZM135.394 173.018C136.289 173.018 137.11 173.018 137.11 171.626C137.11 170.234 136.289 170.234 135.394 170.234H127.634V173.018H135.394Z" fill="#270809"/>
                  <path d="M144.939 172.793H155.011V175.633H141.582V162.465H144.939V172.793Z" fill="#270809"/>
                  <path d="M170.12 165.155H159.675V167.827H170.12V170.272H159.675V172.943H170.12V175.633H156.318V162.465H170.12V165.155Z" fill="#270809"/>
                  </g>
                  <defs>
                  <linearGradient id="paint0_linear_2_21506" x1="189" y1="0.67862" x2="-0.144322" y2="4.88312" gradientUnits="userSpaceOnUse">
                  <stop stop-color="#89213C"/>
                  <stop offset="1" stop-color="#BD2F54"/>
                  </linearGradient>
                  <linearGradient id="paint1_linear_2_21506" x1="-96.4492" y1="154.892" x2="282.166" y2="155.557" gradientUnits="userSpaceOnUse">
                  <stop stop-color="#F9F9F9"/>
                  <stop offset="1" stop-color="white" stop-opacity="0.77"/>
                  </linearGradient>
                  <linearGradient id="paint2_linear_2_21506" x1="149.339" y1="11.9658" x2="39.5773" y2="14.4269" gradientUnits="userSpaceOnUse">
                  <stop stop-color="#89213C"/>
                  <stop offset="1" stop-color="#BD2F54"/>
                  </linearGradient>
                  <linearGradient id="paint3_linear_2_21506" x1="127.83" y1="33.7832" x2="60.8387" y2="35.2989" gradientUnits="userSpaceOnUse">
                  <stop stop-color="#89213C"/>
                  <stop offset="1" stop-color="#BD2F54"/>
                  </linearGradient>
                  <linearGradient id="paint4_linear_2_21506" x1="127.83" y1="33.7832" x2="60.8387" y2="35.2989" gradientUnits="userSpaceOnUse">
                  <stop stop-color="#89213C"/>
                  <stop offset="1" stop-color="#BD2F54"/>
                  </linearGradient>
                  <linearGradient id="paint5_linear_2_21506" x1="127.83" y1="33.7832" x2="60.8387" y2="35.2989" gradientUnits="userSpaceOnUse">
                  <stop stop-color="#89213C"/>
                  <stop offset="1" stop-color="#BD2F54"/>
                  </linearGradient>
                  <linearGradient id="paint6_linear_2_21506" x1="127.83" y1="33.7832" x2="60.8387" y2="35.2989" gradientUnits="userSpaceOnUse">
                  <stop stop-color="#89213C"/>
                  <stop offset="1" stop-color="#BD2F54"/>
                  </linearGradient>
                  <linearGradient id="paint7_linear_2_21506" x1="170.12" y1="128.212" x2="20.8924" y2="146.344" gradientUnits="userSpaceOnUse">
                  <stop stop-color="#89213C"/>
                  <stop offset="1" stop-color="#BD2F54"/>
                  </linearGradient>
                  <linearGradient id="paint8_linear_2_21506" x1="170.12" y1="128.212" x2="20.8924" y2="146.344" gradientUnits="userSpaceOnUse">
                  <stop stop-color="#89213C"/>
                  <stop offset="1" stop-color="#BD2F54"/>
                  </linearGradient>
                  <linearGradient id="paint9_linear_2_21506" x1="170.12" y1="128.212" x2="20.8924" y2="146.344" gradientUnits="userSpaceOnUse">
                  <stop stop-color="#89213C"/>
                  <stop offset="1" stop-color="#BD2F54"/>
                  </linearGradient>
                  <linearGradient id="paint10_linear_2_21506" x1="170.12" y1="128.212" x2="20.8924" y2="146.344" gradientUnits="userSpaceOnUse">
                  <stop stop-color="#89213C"/>
                  <stop offset="1" stop-color="#BD2F54"/>
                  </linearGradient>
                  <linearGradient id="paint11_linear_2_21506" x1="170.12" y1="128.212" x2="20.8924" y2="146.344" gradientUnits="userSpaceOnUse">
                  <stop stop-color="#89213C"/>
                  <stop offset="1" stop-color="#BD2F54"/>
                  </linearGradient>
                  <linearGradient id="paint12_linear_2_21506" x1="170.12" y1="128.212" x2="20.8924" y2="146.344" gradientUnits="userSpaceOnUse">
                  <stop stop-color="#89213C"/>
                  <stop offset="1" stop-color="#BD2F54"/>
                  </linearGradient>
                  <clipPath id="clip0_2_21506">
                  <rect y="0.678711" width="189" height="190.642" rx="10.2606" fill="white"/>
                  </clipPath>
                  </defs>
                  </svg>