<svg width="auto" height="auto" viewBox="0 0 189 191" fill="none" xmlns="http://www.w3.org/2000/svg">
                    <g clip-path="url(#clip0_2_21468)">
                    <path d="M189 0.178711H0V190.82H189V0.178711Z" fill="url(#paint0_linear_2_21468)"/>
                    <ellipse cx="92.8581" cy="179.739" rx="189.308" ry="100.759" fill="url(#paint1_linear_2_21468)"/>
                    <path d="M94.5002 13.5166C123.654 13.5167 147.287 37.151 147.287 66.3047C147.287 95.4582 123.654 119.092 94.5002 119.092C65.3466 119.092 41.7123 95.4583 41.7122 66.3047C41.7122 37.151 65.3465 13.5166 94.5002 13.5166Z" fill="white" stroke="url(#paint2_linear_2_21468)" stroke-width="4.10423"/>
                    <mask id="path-5-inside-1_2_21468" fill="white">
                    <path fill-rule="evenodd" clip-rule="evenodd" d="M97.8834 81.5767C97.8986 81.9641 97.8957 82.357 97.8695 82.7551C97.7818 84.1218 97.4761 85.5405 96.9569 86.6594C96.2844 88.1109 95.9554 88.5562 94.8688 89.7317C94.098 90.5657 92.873 91.3249 91.5202 91.7384C88.1909 92.7542 85.5743 91.6368 83.5073 90.3081C82.5556 89.6964 82.652 89.6585 81.9982 89.2232C81.9782 89.21 81.9623 89.1971 81.9445 89.1811L80.6244 87.967L80.6182 87.9612C76.3496 83.8779 72.0687 75.2834 73.2209 68.8311C73.9911 64.5209 77.1936 61.3298 81.4379 61.2922C82.0775 61.2867 82.6235 61.3298 83.1133 61.4162C83.319 61.4522 83.5176 61.3417 83.5917 61.1479C83.6664 60.9542 83.5936 60.7403 83.4164 60.6307C83.3546 60.5925 83.2908 60.5539 83.2268 60.5144C83.2181 60.5089 83.2109 60.5057 83.2022 60.5006C80.8204 59.2493 77.6202 58.4111 74.8102 58.6546C70.6706 59.0141 67.9666 61.8766 67.079 65.7401C65.0773 74.4458 70.0608 84.9722 75.318 90.4321C78.4354 93.6682 81.6945 96.2618 86.0417 97.7634C96.3106 101.31 100.401 93.6509 99.2527 84.3251C99.1278 83.3106 98.9567 82.3811 98.7335 81.4597C98.6817 81.2445 98.4756 81.1047 98.255 81.1353C98.0351 81.1667 97.8749 81.3553 97.8834 81.5767ZM84.2794 69.8736C86.8799 69.5529 90.3 72.4386 91.9177 76.3185C93.5351 80.1978 92.7387 83.6032 90.1386 83.9239C87.5381 84.2445 84.1186 81.3589 82.5012 77.4796C80.8835 73.5996 81.6799 70.1942 84.2794 69.8736Z"/>
                    <path fill-rule="evenodd" clip-rule="evenodd" d="M118.318 47.2535C113.09 40.7639 106.095 35.4045 99.1456 33.3831C98.1027 33.0804 97.0271 33.4454 96.8113 34.6611C96.6554 35.5391 96.865 36.7243 97.9555 37.7584C99.1944 38.9336 104.47 39.6664 110.703 45.5572C111.265 44.8594 111.883 43.9566 112.543 43.5448C112.964 43.2826 113.453 43.2614 113.895 43.4869C114.337 43.7121 114.605 44.1201 114.635 44.6123C114.714 45.927 114.492 47.0912 114.153 48.3429C114.111 48.5575 114.042 48.7965 113.955 49.0436C114.996 50.2994 116.048 51.7117 117.098 53.3071C119.996 57.7136 121.765 62.4497 122.479 66.4672C122.867 68.6444 122.789 71.5862 123.139 72.4912C124.161 75.1269 127.562 75.6577 127.782 73.1421C128.082 69.7338 126.94 64.4837 125.789 60.8906C124.406 56.5776 121.564 51.2822 118.318 47.2535ZM103.591 66.7287C103.673 68.0215 103.701 69.1215 104.553 70.0406C106.122 71.7353 108.666 71.3401 108.693 68.8857C108.73 65.7973 108.205 63.126 106.113 59.762C105.974 59.5381 105.832 59.3199 105.685 59.1076C105.535 59.2191 105.386 59.3283 105.244 59.4401C103.205 61.0503 103.65 62.0218 103.668 64.4522C103.673 65.2152 103.649 65.9766 103.591 66.7287ZM107.425 48.3217C104.735 45.9617 101.788 44.1128 98.8541 43.1348C97.6847 42.7435 95.6462 41.7049 94.722 43.5978C94.0928 44.8867 94.8291 47.0806 96.7046 47.9419L98.8942 48.7303C99.5936 49.0076 100.274 49.3231 100.936 49.6713C101.687 49.5402 102.442 49.4548 103.178 49.4056C104.735 49.1538 106.155 48.8945 107.425 48.3217ZM108.015 55.564C110.777 59.0234 112.567 63.2786 112.995 67.758C113.172 69.6053 112.719 71.095 113.914 72.5658C115.129 74.0597 117.374 74.4462 118.148 72.7139C118.854 71.1365 117.937 65.6075 117.233 63.3419C116.175 59.9368 114.387 56.0555 111.722 52.7866C110.681 53.932 109.405 54.8714 108.015 55.564Z"/>
                    <path fill-rule="evenodd" clip-rule="evenodd" d="M110.944 47.3556C109.018 49.3693 107.196 50.0533 105.273 50.4131C102.659 50.9018 100.203 50.8854 97.7274 52.0493C95.6546 53.0292 93.998 55.0728 93.1512 57.1739C92.9632 57.6397 92.83 58.1094 92.7054 58.6048C91.8815 61.8724 92.3402 65.5037 92.7216 68.9252L92.7226 68.9316C92.9403 71.1782 92.5366 72.1703 92.1325 72.9632C92.0442 73.137 92.0811 73.3407 92.2257 73.4718C92.3706 73.6041 92.5776 73.6231 92.7445 73.5203C94.5211 72.4267 95.5265 69.8887 95.8985 68.0793C96.1786 66.7213 96.4164 65.3961 96.6593 63.9751C96.931 62.389 97.4939 59.6971 98.3938 58.4101C98.9182 57.6632 99.5897 57.1257 100.347 56.7202C102.11 55.776 104.342 55.5662 106.247 54.8524C108.618 53.9702 110.759 52.3234 111.986 50.0992C112.225 49.6678 112.711 48.6359 112.817 48.0582C112.819 48.046 112.822 48.0354 112.824 48.0239C113.026 47.2827 113.2 46.5534 113.261 45.765C113.275 45.5761 113.17 45.4071 112.993 45.3355C112.817 45.2635 112.623 45.3117 112.5 45.4569C111.971 46.0853 111.37 46.9104 110.944 47.3556ZM87.3069 68.8391C87.4786 69.8125 87.4337 71.2004 87.292 72.2969C87.2739 72.4347 87.1985 72.5462 87.0769 72.6153C86.9549 72.6834 86.8203 72.6914 86.6919 72.6352C85.9246 72.3027 84.588 71.9245 84.6226 73.8553C84.6498 75.4019 85.2214 76.6606 85.8224 77.7848C86.5467 79.1402 88.7774 81.6788 89.7769 80.3379C90.0742 79.9389 90.105 79.3631 90.0587 78.7566C90.0496 78.6348 90.0865 78.5275 90.1687 78.4369C90.2505 78.347 90.3544 78.2998 90.4766 78.2959C91.6243 78.2644 92.97 77.9544 94.4758 77.4291C95.2525 77.1596 95.9988 76.7805 96.6415 76.4367C101.244 74.0587 102.334 69.2535 102.3 64.4615C102.288 62.61 101.971 60.8723 103.313 59.3986C103.787 58.8788 104.27 58.4085 104.707 58.0198C104.848 57.8938 104.889 57.7001 104.813 57.5276C104.736 57.3547 104.564 57.2552 104.375 57.2744C103.891 57.3236 103.395 57.4142 102.88 57.6037C101.127 58.2498 99.7434 59.7781 99.2581 61.5643C98.1583 65.6094 98.8774 69.3981 95.3754 73.0409C95.3712 73.0454 95.3673 73.0493 95.3641 73.0538C94.5535 73.9659 91.5952 76.0714 90.0652 76.6966C89.8504 76.7843 89.6042 76.6867 89.5078 76.4762L88.9783 75.311C88.9217 75.188 88.9255 75.0572 88.9886 74.937C89.8206 73.3513 90.6377 73.0788 91.0511 70.607C91.3481 68.8365 91.0621 68.2579 90.901 66.5205C90.9007 66.5166 90.9001 66.5125 90.9004 66.5086C90.7257 63.7595 89.9348 61.4538 91.1627 58.4602C91.3342 58.0426 91.5781 57.5915 91.7867 57.198C91.8724 57.0357 91.8488 56.8475 91.7259 56.7116C91.603 56.5754 91.4167 56.5323 91.2462 56.5998C89.9448 57.1132 88.8628 58.0757 88.0948 59.2409C86.0524 62.3418 86.7223 65.4931 87.3069 68.8391Z"/>
                    <path fill-rule="evenodd" clip-rule="evenodd" d="M82.4045 98.8139C79.9651 97.5237 77.7648 95.9543 75.8042 94.0251C69.7842 88.0987 65.5839 79.9703 64.8518 71.3842C64.8331 71.1683 64.6574 71.0015 64.4394 70.9925C64.2204 70.9839 64.0328 71.1365 63.9962 71.3504C63.4628 74.5261 63.3036 77.9946 63.1668 81.3065C63.0863 83.2659 60.9976 84.1047 60.8927 86.6463C60.7368 90.4012 65.3674 97.4572 70.1634 97.4903C70.7524 97.4945 71.3822 97.4229 71.9716 97.2796C74.8218 96.5885 73.0575 96.3257 76.4399 97.7631C77.2799 98.1203 78.2559 98.5161 79.1794 98.8075C79.6329 98.9511 80.8541 99.2962 82.0969 99.6071C82.3097 99.6605 82.5265 99.5493 82.6047 99.346C82.6837 99.1426 82.5983 98.9161 82.4045 98.8139Z"/>
                    </mask>
                    <path fill-rule="evenodd" clip-rule="evenodd" d="M97.8834 81.5767C97.8986 81.9641 97.8957 82.357 97.8695 82.7551C97.7818 84.1218 97.4761 85.5405 96.9569 86.6594C96.2844 88.1109 95.9554 88.5562 94.8688 89.7317C94.098 90.5657 92.873 91.3249 91.5202 91.7384C88.1909 92.7542 85.5743 91.6368 83.5073 90.3081C82.5556 89.6964 82.652 89.6585 81.9982 89.2232C81.9782 89.21 81.9623 89.1971 81.9445 89.1811L80.6244 87.967L80.6182 87.9612C76.3496 83.8779 72.0687 75.2834 73.2209 68.8311C73.9911 64.5209 77.1936 61.3298 81.4379 61.2922C82.0775 61.2867 82.6235 61.3298 83.1133 61.4162C83.319 61.4522 83.5176 61.3417 83.5917 61.1479C83.6664 60.9542 83.5936 60.7403 83.4164 60.6307C83.3546 60.5925 83.2908 60.5539 83.2268 60.5144C83.2181 60.5089 83.2109 60.5057 83.2022 60.5006C80.8204 59.2493 77.6202 58.4111 74.8102 58.6546C70.6706 59.0141 67.9666 61.8766 67.079 65.7401C65.0773 74.4458 70.0608 84.9722 75.318 90.4321C78.4354 93.6682 81.6945 96.2618 86.0417 97.7634C96.3106 101.31 100.401 93.6509 99.2527 84.3251C99.1278 83.3106 98.9567 82.3811 98.7335 81.4597C98.6817 81.2445 98.4756 81.1047 98.255 81.1353C98.0351 81.1667 97.8749 81.3553 97.8834 81.5767ZM84.2794 69.8736C86.8799 69.5529 90.3 72.4386 91.9177 76.3185C93.5351 80.1978 92.7387 83.6032 90.1386 83.9239C87.5381 84.2445 84.1186 81.3589 82.5012 77.4796C80.8835 73.5996 81.6799 70.1942 84.2794 69.8736Z" fill="#242424"/>
                    <path fill-rule="evenodd" clip-rule="evenodd" d="M118.318 47.2535C113.09 40.7639 106.095 35.4045 99.1456 33.3831C98.1027 33.0804 97.0271 33.4454 96.8113 34.6611C96.6554 35.5391 96.865 36.7243 97.9555 37.7584C99.1944 38.9336 104.47 39.6664 110.703 45.5572C111.265 44.8594 111.883 43.9566 112.543 43.5448C112.964 43.2826 113.453 43.2614 113.895 43.4869C114.337 43.7121 114.605 44.1201 114.635 44.6123C114.714 45.927 114.492 47.0912 114.153 48.3429C114.111 48.5575 114.042 48.7965 113.955 49.0436C114.996 50.2994 116.048 51.7117 117.098 53.3071C119.996 57.7136 121.765 62.4497 122.479 66.4672C122.867 68.6444 122.789 71.5862 123.139 72.4912C124.161 75.1269 127.562 75.6577 127.782 73.1421C128.082 69.7338 126.94 64.4837 125.789 60.8906C124.406 56.5776 121.564 51.2822 118.318 47.2535ZM103.591 66.7287C103.673 68.0215 103.701 69.1215 104.553 70.0406C106.122 71.7353 108.666 71.3401 108.693 68.8857C108.73 65.7973 108.205 63.126 106.113 59.762C105.974 59.5381 105.832 59.3199 105.685 59.1076C105.535 59.2191 105.386 59.3283 105.244 59.4401C103.205 61.0503 103.65 62.0218 103.668 64.4522C103.673 65.2152 103.649 65.9766 103.591 66.7287ZM107.425 48.3217C104.735 45.9617 101.788 44.1128 98.8541 43.1348C97.6847 42.7435 95.6462 41.7049 94.722 43.5978C94.0928 44.8867 94.8291 47.0806 96.7046 47.9419L98.8942 48.7303C99.5936 49.0076 100.274 49.3231 100.936 49.6713C101.687 49.5402 102.442 49.4548 103.178 49.4056C104.735 49.1538 106.155 48.8945 107.425 48.3217ZM108.015 55.564C110.777 59.0234 112.567 63.2786 112.995 67.758C113.172 69.6053 112.719 71.095 113.914 72.5658C115.129 74.0597 117.374 74.4462 118.148 72.7139C118.854 71.1365 117.937 65.6075 117.233 63.3419C116.175 59.9368 114.387 56.0555 111.722 52.7866C110.681 53.932 109.405 54.8714 108.015 55.564Z" fill="#CDCDCD"/>
                    <path fill-rule="evenodd" clip-rule="evenodd" d="M110.944 47.3556C109.018 49.3693 107.196 50.0533 105.273 50.4131C102.659 50.9018 100.203 50.8854 97.7274 52.0493C95.6546 53.0292 93.998 55.0728 93.1512 57.1739C92.9632 57.6397 92.83 58.1094 92.7054 58.6048C91.8815 61.8724 92.3402 65.5037 92.7216 68.9252L92.7226 68.9316C92.9403 71.1782 92.5366 72.1703 92.1325 72.9632C92.0442 73.137 92.0811 73.3407 92.2257 73.4718C92.3706 73.6041 92.5776 73.6231 92.7445 73.5203C94.5211 72.4267 95.5265 69.8887 95.8985 68.0793C96.1786 66.7213 96.4164 65.3961 96.6593 63.9751C96.931 62.389 97.4939 59.6971 98.3938 58.4101C98.9182 57.6632 99.5897 57.1257 100.347 56.7202C102.11 55.776 104.342 55.5662 106.247 54.8524C108.618 53.9702 110.759 52.3234 111.986 50.0992C112.225 49.6678 112.711 48.6359 112.817 48.0582C112.819 48.046 112.822 48.0354 112.824 48.0239C113.026 47.2827 113.2 46.5534 113.261 45.765C113.275 45.5761 113.17 45.4071 112.993 45.3355C112.817 45.2635 112.623 45.3117 112.5 45.4569C111.971 46.0853 111.37 46.9104 110.944 47.3556ZM87.3069 68.8391C87.4786 69.8125 87.4337 71.2004 87.292 72.2969C87.2739 72.4347 87.1985 72.5462 87.0769 72.6153C86.9549 72.6834 86.8203 72.6914 86.6919 72.6352C85.9246 72.3027 84.588 71.9245 84.6226 73.8553C84.6498 75.4019 85.2214 76.6606 85.8224 77.7848C86.5467 79.1402 88.7774 81.6788 89.7769 80.3379C90.0742 79.9389 90.105 79.3631 90.0587 78.7566C90.0496 78.6348 90.0865 78.5275 90.1687 78.4369C90.2505 78.347 90.3544 78.2998 90.4766 78.2959C91.6243 78.2644 92.97 77.9544 94.4758 77.4291C95.2525 77.1596 95.9988 76.7805 96.6415 76.4367C101.244 74.0587 102.334 69.2535 102.3 64.4615C102.288 62.61 101.971 60.8723 103.313 59.3986C103.787 58.8788 104.27 58.4085 104.707 58.0198C104.848 57.8938 104.889 57.7001 104.813 57.5276C104.736 57.3547 104.564 57.2552 104.375 57.2744C103.891 57.3236 103.395 57.4142 102.88 57.6037C101.127 58.2498 99.7434 59.7781 99.2581 61.5643C98.1583 65.6094 98.8774 69.3981 95.3754 73.0409C95.3712 73.0454 95.3673 73.0493 95.3641 73.0538C94.5535 73.9659 91.5952 76.0714 90.0652 76.6966C89.8504 76.7843 89.6042 76.6867 89.5078 76.4762L88.9783 75.311C88.9217 75.188 88.9255 75.0572 88.9886 74.937C89.8206 73.3513 90.6377 73.0788 91.0511 70.607C91.3481 68.8365 91.0621 68.2579 90.901 66.5205C90.9007 66.5166 90.9001 66.5125 90.9004 66.5086C90.7257 63.7595 89.9348 61.4538 91.1627 58.4602C91.3342 58.0426 91.5781 57.5915 91.7867 57.198C91.8724 57.0357 91.8488 56.8475 91.7259 56.7116C91.603 56.5754 91.4167 56.5323 91.2462 56.5998C89.9448 57.1132 88.8628 58.0757 88.0948 59.2409C86.0524 62.3418 86.7223 65.4931 87.3069 68.8391Z" fill="#BE292E"/>
                    <path fill-rule="evenodd" clip-rule="evenodd" d="M82.4045 98.8139C79.9651 97.5237 77.7648 95.9543 75.8042 94.0251C69.7842 88.0987 65.5839 79.9703 64.8518 71.3842C64.8331 71.1683 64.6574 71.0015 64.4394 70.9925C64.2204 70.9839 64.0328 71.1365 63.9962 71.3504C63.4628 74.5261 63.3036 77.9946 63.1668 81.3065C63.0863 83.2659 60.9976 84.1047 60.8927 86.6463C60.7368 90.4012 65.3674 97.4572 70.1634 97.4903C70.7524 97.4945 71.3822 97.4229 71.9716 97.2796C74.8218 96.5885 73.0575 96.3257 76.4399 97.7631C77.2799 98.1203 78.2559 98.5161 79.1794 98.8075C79.6329 98.9511 80.8541 99.2962 82.0969 99.6071C82.3097 99.6605 82.5265 99.5493 82.6047 99.346C82.6837 99.1426 82.5983 98.9161 82.4045 98.8139Z" fill="#242424"/>
                    <path fill-rule="evenodd" clip-rule="evenodd" d="M97.8834 81.5767C97.8986 81.9641 97.8957 82.357 97.8695 82.7551C97.7818 84.1218 97.4761 85.5405 96.9569 86.6594C96.2844 88.1109 95.9554 88.5562 94.8688 89.7317C94.098 90.5657 92.873 91.3249 91.5202 91.7384C88.1909 92.7542 85.5743 91.6368 83.5073 90.3081C82.5556 89.6964 82.652 89.6585 81.9982 89.2232C81.9782 89.21 81.9623 89.1971 81.9445 89.1811L80.6244 87.967L80.6182 87.9612C76.3496 83.8779 72.0687 75.2834 73.2209 68.8311C73.9911 64.5209 77.1936 61.3298 81.4379 61.2922C82.0775 61.2867 82.6235 61.3298 83.1133 61.4162C83.319 61.4522 83.5176 61.3417 83.5917 61.1479C83.6664 60.9542 83.5936 60.7403 83.4164 60.6307C83.3546 60.5925 83.2908 60.5539 83.2268 60.5144C83.2181 60.5089 83.2109 60.5057 83.2022 60.5006C80.8204 59.2493 77.6202 58.4111 74.8102 58.6546C70.6706 59.0141 67.9666 61.8766 67.079 65.7401C65.0773 74.4458 70.0608 84.9722 75.318 90.4321C78.4354 93.6682 81.6945 96.2618 86.0417 97.7634C96.3106 101.31 100.401 93.6509 99.2527 84.3251C99.1278 83.3106 98.9567 82.3811 98.7335 81.4597C98.6817 81.2445 98.4756 81.1047 98.255 81.1353C98.0351 81.1667 97.8749 81.3553 97.8834 81.5767ZM84.2794 69.8736C86.8799 69.5529 90.3 72.4386 91.9177 76.3185C93.5351 80.1978 92.7387 83.6032 90.1386 83.9239C87.5381 84.2445 84.1186 81.3589 82.5012 77.4796C80.8835 73.5996 81.6799 70.1942 84.2794 69.8736Z" stroke="url(#paint3_linear_2_21468)" stroke-width="0.187454" mask="url(#path-5-inside-1_2_21468)"/>
                    <path fill-rule="evenodd" clip-rule="evenodd" d="M118.318 47.2535C113.09 40.7639 106.095 35.4045 99.1456 33.3831C98.1027 33.0804 97.0271 33.4454 96.8113 34.6611C96.6554 35.5391 96.865 36.7243 97.9555 37.7584C99.1944 38.9336 104.47 39.6664 110.703 45.5572C111.265 44.8594 111.883 43.9566 112.543 43.5448C112.964 43.2826 113.453 43.2614 113.895 43.4869C114.337 43.7121 114.605 44.1201 114.635 44.6123C114.714 45.927 114.492 47.0912 114.153 48.3429C114.111 48.5575 114.042 48.7965 113.955 49.0436C114.996 50.2994 116.048 51.7117 117.098 53.3071C119.996 57.7136 121.765 62.4497 122.479 66.4672C122.867 68.6444 122.789 71.5862 123.139 72.4912C124.161 75.1269 127.562 75.6577 127.782 73.1421C128.082 69.7338 126.94 64.4837 125.789 60.8906C124.406 56.5776 121.564 51.2822 118.318 47.2535ZM103.591 66.7287C103.673 68.0215 103.701 69.1215 104.553 70.0406C106.122 71.7353 108.666 71.3401 108.693 68.8857C108.73 65.7973 108.205 63.126 106.113 59.762C105.974 59.5381 105.832 59.3199 105.685 59.1076C105.535 59.2191 105.386 59.3283 105.244 59.4401C103.205 61.0503 103.65 62.0218 103.668 64.4522C103.673 65.2152 103.649 65.9766 103.591 66.7287ZM107.425 48.3217C104.735 45.9617 101.788 44.1128 98.8541 43.1348C97.6847 42.7435 95.6462 41.7049 94.722 43.5978C94.0928 44.8867 94.8291 47.0806 96.7046 47.9419L98.8942 48.7303C99.5936 49.0076 100.274 49.3231 100.936 49.6713C101.687 49.5402 102.442 49.4548 103.178 49.4056C104.735 49.1538 106.155 48.8945 107.425 48.3217ZM108.015 55.564C110.777 59.0234 112.567 63.2786 112.995 67.758C113.172 69.6053 112.719 71.095 113.914 72.5658C115.129 74.0597 117.374 74.4462 118.148 72.7139C118.854 71.1365 117.937 65.6075 117.233 63.3419C116.175 59.9368 114.387 56.0555 111.722 52.7866C110.681 53.932 109.405 54.8714 108.015 55.564Z" stroke="url(#paint4_linear_2_21468)" stroke-width="0.187454" mask="url(#path-5-inside-1_2_21468)"/>
                    <path fill-rule="evenodd" clip-rule="evenodd" d="M110.944 47.3556C109.018 49.3693 107.196 50.0533 105.273 50.4131C102.659 50.9018 100.203 50.8854 97.7274 52.0493C95.6546 53.0292 93.998 55.0728 93.1512 57.1739C92.9632 57.6397 92.83 58.1094 92.7054 58.6048C91.8815 61.8724 92.3402 65.5037 92.7216 68.9252L92.7226 68.9316C92.9403 71.1782 92.5366 72.1703 92.1325 72.9632C92.0442 73.137 92.0811 73.3407 92.2257 73.4718C92.3706 73.6041 92.5776 73.6231 92.7445 73.5203C94.5211 72.4267 95.5265 69.8887 95.8985 68.0793C96.1786 66.7213 96.4164 65.3961 96.6593 63.9751C96.931 62.389 97.4939 59.6971 98.3938 58.4101C98.9182 57.6632 99.5897 57.1257 100.347 56.7202C102.11 55.776 104.342 55.5662 106.247 54.8524C108.618 53.9702 110.759 52.3234 111.986 50.0992C112.225 49.6678 112.711 48.6359 112.817 48.0582C112.819 48.046 112.822 48.0354 112.824 48.0239C113.026 47.2827 113.2 46.5534 113.261 45.765C113.275 45.5761 113.17 45.4071 112.993 45.3355C112.817 45.2635 112.623 45.3117 112.5 45.4569C111.971 46.0853 111.37 46.9104 110.944 47.3556ZM87.3069 68.8391C87.4786 69.8125 87.4337 71.2004 87.292 72.2969C87.2739 72.4347 87.1985 72.5462 87.0769 72.6153C86.9549 72.6834 86.8203 72.6914 86.6919 72.6352C85.9246 72.3027 84.588 71.9245 84.6226 73.8553C84.6498 75.4019 85.2214 76.6606 85.8224 77.7848C86.5467 79.1402 88.7774 81.6788 89.7769 80.3379C90.0742 79.9389 90.105 79.3631 90.0587 78.7566C90.0496 78.6348 90.0865 78.5275 90.1687 78.4369C90.2505 78.347 90.3544 78.2998 90.4766 78.2959C91.6243 78.2644 92.97 77.9544 94.4758 77.4291C95.2525 77.1596 95.9988 76.7805 96.6415 76.4367C101.244 74.0587 102.334 69.2535 102.3 64.4615C102.288 62.61 101.971 60.8723 103.313 59.3986C103.787 58.8788 104.27 58.4085 104.707 58.0198C104.848 57.8938 104.889 57.7001 104.813 57.5276C104.736 57.3547 104.564 57.2552 104.375 57.2744C103.891 57.3236 103.395 57.4142 102.88 57.6037C101.127 58.2498 99.7434 59.7781 99.2581 61.5643C98.1583 65.6094 98.8774 69.3981 95.3754 73.0409C95.3712 73.0454 95.3673 73.0493 95.3641 73.0538C94.5535 73.9659 91.5952 76.0714 90.0652 76.6966C89.8504 76.7843 89.6042 76.6867 89.5078 76.4762L88.9783 75.311C88.9217 75.188 88.9255 75.0572 88.9886 74.937C89.8206 73.3513 90.6377 73.0788 91.0511 70.607C91.3481 68.8365 91.0621 68.2579 90.901 66.5205C90.9007 66.5166 90.9001 66.5125 90.9004 66.5086C90.7257 63.7595 89.9348 61.4538 91.1627 58.4602C91.3342 58.0426 91.5781 57.5915 91.7867 57.198C91.8724 57.0357 91.8488 56.8475 91.7259 56.7116C91.603 56.5754 91.4167 56.5323 91.2462 56.5998C89.9448 57.1132 88.8628 58.0757 88.0948 59.2409C86.0524 62.3418 86.7223 65.4931 87.3069 68.8391Z" stroke="url(#paint5_linear_2_21468)" stroke-width="0.187454" mask="url(#path-5-inside-1_2_21468)"/>
                    <path fill-rule="evenodd" clip-rule="evenodd" d="M82.4045 98.8139C79.9651 97.5237 77.7648 95.9543 75.8042 94.0251C69.7842 88.0987 65.5839 79.9703 64.8518 71.3842C64.8331 71.1683 64.6574 71.0015 64.4394 70.9925C64.2204 70.9839 64.0328 71.1365 63.9962 71.3504C63.4628 74.5261 63.3036 77.9946 63.1668 81.3065C63.0863 83.2659 60.9976 84.1047 60.8927 86.6463C60.7368 90.4012 65.3674 97.4572 70.1634 97.4903C70.7524 97.4945 71.3822 97.4229 71.9716 97.2796C74.8218 96.5885 73.0575 96.3257 76.4399 97.7631C77.2799 98.1203 78.2559 98.5161 79.1794 98.8075C79.6329 98.9511 80.8541 99.2962 82.0969 99.6071C82.3097 99.6605 82.5265 99.5493 82.6047 99.346C82.6837 99.1426 82.5983 98.9161 82.4045 98.8139Z" stroke="url(#paint6_linear_2_21468)" stroke-width="0.187454" mask="url(#path-5-inside-1_2_21468)"/>
                    <path d="M28.9345 147.088L18.8794 131.987H27.3528L32.6063 140.341L37.8598 131.987H46.3332L36.2781 147.088V154.478H28.9345V147.088Z" fill="url(#paint7_linear_2_21468)"/>
                    <path d="M56.2142 154.799C47.5149 154.799 43.7866 151.04 43.7866 143.2C43.7866 135.393 47.5149 131.666 56.2142 131.666C64.8854 131.666 68.6419 135.425 68.6419 143.2C68.6419 151.008 64.8854 154.799 56.2142 154.799ZM56.2142 147.731C60.5357 147.731 61.2983 145.578 61.2983 143.2C61.2983 140.855 60.5639 138.734 56.2142 138.734C51.8646 138.734 51.1302 140.823 51.1302 143.2C51.1302 145.61 51.8928 147.731 56.2142 147.731Z" fill="url(#paint8_linear_2_21468)"/>
                    <path d="M92.6044 140.598C92.6044 143.875 91.2769 146.574 89.1021 148.02L92.6044 154.478H83.9051L81.1653 149.209H76.8439V154.478H69.5003V131.987H85.0349C89.5258 131.987 92.6044 135.586 92.6044 140.598ZM76.8439 139.056V142.14H83.6226C84.357 142.14 85.2608 142.14 85.2608 140.598C85.2608 139.056 84.357 139.056 83.6226 139.056H76.8439Z" fill="url(#paint9_linear_2_21468)"/>
                    <path d="M108.762 130.06L105.068 131.987L99.6302 125.562L102.503 122.991L108.762 130.06ZM118.297 143.2C118.297 151.008 114.541 154.799 105.87 154.799C97.1704 154.799 93.4421 151.04 93.4421 143.2V131.987H100.786V143.2C100.786 145.61 101.548 147.731 105.87 147.731C110.191 147.731 110.954 145.578 110.954 143.2V131.987H118.297V143.2Z" fill="url(#paint10_linear_2_21468)"/>
                    <path d="M140.976 141.915C142.699 143.329 143.941 145.385 143.941 147.827C143.941 151.522 141.992 154.478 137.502 154.478H119.425V131.987H136.654C141.145 131.987 142.529 134.301 142.529 137.706C142.529 139.152 141.936 140.63 140.976 141.915ZM126.769 137.449V139.891H133.547C134.282 139.891 135.186 139.891 135.186 138.67C135.186 137.449 134.282 137.449 133.547 137.449H126.769ZM134.96 148.373C135.694 148.373 136.598 148.373 136.598 147.184C136.598 145.996 135.694 145.996 134.96 145.996H126.769V148.373H134.96Z" fill="url(#paint11_linear_2_21468)"/>
                    <path d="M157.91 123.108L161.929 122.991L158.766 130.06H154.19L157.91 123.108ZM162.042 154.478L160.687 150.429H152.27L150.914 154.478H142.836L151.027 131.987H161.929L170.12 154.478H162.042ZM154.19 144.646H158.766L156.478 137.771L154.19 144.646Z" fill="url(#paint12_linear_2_21468)"/>
                    <path d="M33.1858 174.311L31.7868 171.508H23.9715L22.5726 174.311H18.8794L25.6129 161.143H30.1454L36.8976 174.311H33.1858ZM25.2212 168.987H30.5371L27.8885 163.645L25.2212 168.987Z" fill="#270809"/>
                    <path d="M52.8573 167.708C52.8573 172.279 50.3766 174.499 44.6503 174.499C38.9054 174.499 36.4432 172.298 36.4432 167.708V161.143H39.8007V167.708C39.8007 169.552 40.3043 171.659 44.6503 171.659C48.9963 171.659 49.4999 169.533 49.4999 167.708V161.143H52.8573V167.708Z" fill="#270809"/>
                    <path d="M63.7331 161.143C67.1092 161.143 70.075 163.25 70.075 167.727C70.075 172.204 67.1092 174.311 63.7331 174.311H54.2577V161.143H63.7331ZM62.4648 171.47C65.0015 171.47 66.7175 170.925 66.7175 167.727C66.7175 164.529 65.0015 163.984 62.4648 163.984H57.6152V171.47H62.4648Z" fill="#270809"/>
                    <path d="M74.6464 161.143V174.311H71.289V161.143H74.6464Z" fill="#270809"/>
                    <path d="M83.9726 174.499C78.2277 174.499 75.7655 172.091 75.7655 167.708C75.7655 163.344 78.2277 160.955 83.9726 160.955C89.6989 160.955 92.1796 163.363 92.1796 167.708C92.1796 172.072 89.6989 174.499 83.9726 174.499ZM83.9726 171.659C87.4606 171.659 88.8222 170.398 88.8222 167.708C88.8222 165.037 87.4792 163.796 83.9726 163.796C80.466 163.796 79.123 165.018 79.123 167.708C79.123 170.417 80.4846 171.659 83.9726 171.659Z" fill="#270809"/>
                    <path d="M116.471 167.163C117.59 167.859 118.318 168.95 118.318 170.473C118.318 172.693 117.031 174.311 114.065 174.311H102.127V161.143H113.617C116.583 161.143 117.497 162.667 117.497 164.604C117.497 165.526 117.124 166.429 116.471 167.163ZM105.485 163.589V166.316H112.423C113.319 166.316 114.139 166.316 114.139 164.943C114.139 163.589 113.319 163.589 112.405 163.589H105.485ZM113.244 171.696C114.139 171.696 114.96 171.696 114.96 170.304C114.96 168.912 114.139 168.912 113.244 168.912H105.485V171.696H113.244Z" fill="#270809"/>
                    <path d="M122.789 161.143V174.311H119.432V161.143H122.789Z" fill="#270809"/>
                    <path d="M138.621 167.163C139.74 167.859 140.467 168.95 140.467 170.473C140.467 172.693 139.18 174.311 136.215 174.311H124.277V161.143H135.767C138.733 161.143 139.647 162.667 139.647 164.604C139.647 165.526 139.274 166.429 138.621 167.163ZM127.634 163.589V166.316H134.573C135.468 166.316 136.289 166.316 136.289 164.943C136.289 163.589 135.468 163.589 134.555 163.589H127.634ZM135.394 171.696C136.289 171.696 137.11 171.696 137.11 170.304C137.11 168.912 136.289 168.912 135.394 168.912H127.634V171.696H135.394Z" fill="#270809"/>
                    <path d="M144.939 171.47H155.011V174.311H141.582V161.143H144.939V171.47Z" fill="#270809"/>
                    <path d="M170.12 163.833H159.675V166.504H170.12V168.95H159.675V171.621H170.12V174.311H156.318V161.143H170.12V163.833Z" fill="#270809"/>
                    </g>
                    <defs>
                    <linearGradient id="paint0_linear_2_21468" x1="189" y1="0.17862" x2="-0.144322" y2="4.38312" gradientUnits="userSpaceOnUse">
                    <stop stop-color="#89213C"/>
                    <stop offset="1" stop-color="#BD2F54"/>
                    </linearGradient>
                    <linearGradient id="paint1_linear_2_21468" x1="-96.4497" y1="154.392" x2="282.166" y2="155.057" gradientUnits="userSpaceOnUse">
                    <stop stop-color="#F9F9F9"/>
                    <stop offset="1" stop-color="white" stop-opacity="0.77"/>
                    </linearGradient>
                    <linearGradient id="paint2_linear_2_21468" x1="149.34" y1="11.4648" x2="39.5776" y2="13.9259" gradientUnits="userSpaceOnUse">
                    <stop stop-color="#89213C"/>
                    <stop offset="1" stop-color="#BD2F54"/>
                    </linearGradient>
                    <linearGradient id="paint3_linear_2_21468" x1="127.83" y1="33.2822" x2="60.839" y2="34.798" gradientUnits="userSpaceOnUse">
                    <stop stop-color="#89213C"/>
                    <stop offset="1" stop-color="#BD2F54"/>
                    </linearGradient>
                    <linearGradient id="paint4_linear_2_21468" x1="127.83" y1="33.2822" x2="60.839" y2="34.798" gradientUnits="userSpaceOnUse">
                    <stop stop-color="#89213C"/>
                    <stop offset="1" stop-color="#BD2F54"/>
                    </linearGradient>
                    <linearGradient id="paint5_linear_2_21468" x1="127.83" y1="33.2822" x2="60.839" y2="34.798" gradientUnits="userSpaceOnUse">
                    <stop stop-color="#89213C"/>
                    <stop offset="1" stop-color="#BD2F54"/>
                    </linearGradient>
                    <linearGradient id="paint6_linear_2_21468" x1="127.83" y1="33.2822" x2="60.839" y2="34.798" gradientUnits="userSpaceOnUse">
                    <stop stop-color="#89213C"/>
                    <stop offset="1" stop-color="#BD2F54"/>
                    </linearGradient>
                    <linearGradient id="paint7_linear_2_21468" x1="170.12" y1="122.991" x2="20.391" y2="138.954" gradientUnits="userSpaceOnUse">
                    <stop stop-color="#89213C"/>
                    <stop offset="1" stop-color="#BD2F54"/>
                    </linearGradient>
                    <linearGradient id="paint8_linear_2_21468" x1="170.12" y1="122.991" x2="20.391" y2="138.954" gradientUnits="userSpaceOnUse">
                    <stop stop-color="#89213C"/>
                    <stop offset="1" stop-color="#BD2F54"/>
                    </linearGradient>
                    <linearGradient id="paint9_linear_2_21468" x1="170.12" y1="122.991" x2="20.391" y2="138.954" gradientUnits="userSpaceOnUse">
                    <stop stop-color="#89213C"/>
                    <stop offset="1" stop-color="#BD2F54"/>
                    </linearGradient>
                    <linearGradient id="paint10_linear_2_21468" x1="170.12" y1="122.991" x2="20.391" y2="138.954" gradientUnits="userSpaceOnUse">
                    <stop stop-color="#89213C"/>
                    <stop offset="1" stop-color="#BD2F54"/>
                    </linearGradient>
                    <linearGradient id="paint11_linear_2_21468" x1="170.12" y1="122.991" x2="20.391" y2="138.954" gradientUnits="userSpaceOnUse">
                    <stop stop-color="#89213C"/>
                    <stop offset="1" stop-color="#BD2F54"/>
                    </linearGradient>
                    <linearGradient id="paint12_linear_2_21468" x1="170.12" y1="122.991" x2="20.391" y2="138.954" gradientUnits="userSpaceOnUse">
                    <stop stop-color="#89213C"/>
                    <stop offset="1" stop-color="#BD2F54"/>
                    </linearGradient>
                    <clipPath id="clip0_2_21468">
                    <rect y="0.178711" width="189" height="190.642" rx="10.2606" fill="white"/>
                    </clipPath>
                    </defs>
                    </svg>