<svg width="52" height="61" viewBox="0 0 52 61" fill="none" xmlns="http://www.w3.org/2000/svg">
<g id="Icon">
<g id="Vector">
<path d="M42.7531 32.4916C42.6831 24.9032 49.1258 21.2114 49.4204 21.0396C45.7716 15.8527 40.1161 15.144 38.1287 15.0875C33.3788 14.6002 28.7713 17.8587 26.3517 17.8587C23.8837 17.8587 20.1577 15.1346 16.1418 15.2147C10.9741 15.2924 6.13969 18.2095 3.48822 22.7395C-1.98375 31.976 2.09729 45.5493 7.33985 53.0153C9.96234 56.6717 13.0267 60.7543 17.0377 60.6107C20.9618 60.453 22.4276 58.1715 27.1631 58.1715C31.8551 58.1715 33.2315 60.6107 37.3222 60.5189C41.5336 60.453 44.1851 56.8459 46.7158 53.1565C49.7464 48.9656 50.9635 44.8383 51.0118 44.6264C50.9128 44.5934 42.8328 41.5868 42.7531 32.4916Z" fill="white"/>
<path d="M35.0257 10.1762C37.1362 7.60274 38.5803 4.10168 38.1794 0.548828C35.1247 0.680677 31.3045 2.60897 29.1046 5.12587C27.1582 7.34376 25.4196 10.979 25.8687 14.3977C29.3002 14.6472 32.8234 12.7095 35.0257 10.1762Z" fill="white"/>
</g>
</g>
</svg>
