<svg width="40" height="40" viewBox="0 0 40 40" fill="none" xmlns="http://www.w3.org/2000/svg">
<g id="Layer_1">
<path id="Vector" d="M25.3203 12.088L25.2403 12.052C23.3482 11.2294 21.7956 9.78255 20.8419 7.95305C19.8882 6.12354 19.5912 4.02219 20.0003 2C17.5569 2.86523 15.414 4.41521 13.8274 6.46497C12.2408 8.51474 11.2775 10.9777 11.0523 13.56C11.0283 13.8507 11.0123 14.1427 11.0043 14.436C11.0043 14.532 11.0043 14.628 11.0043 14.728C11.0004 17.3919 11.7884 19.9969 13.2683 22.212C12.6504 22.2936 12.0223 22.2457 11.4239 22.0714C10.8255 21.8971 10.2699 21.6002 9.79246 21.1995C9.31504 20.7988 8.92622 20.3032 8.65074 19.7441C8.37526 19.185 8.21914 18.5747 8.19231 17.952C7.08712 19.9464 6.50493 22.1882 6.50003 24.4684C6.49513 26.7485 7.06768 28.9928 8.1643 30.992C9.26091 32.9911 10.8459 34.68 12.7714 35.9013C14.697 37.1225 16.9004 37.8362 19.1763 37.976C18.1026 37.4989 17.1868 36.7261 16.5359 35.748C15.885 34.7698 15.5258 33.6267 15.5003 32.452C15.5003 32.408 15.5003 32.364 15.5003 32.32C15.4995 31.1091 15.8543 29.9246 16.5206 28.9134C17.1868 27.9023 18.1353 27.109 19.2483 26.632H19.2803C20.1874 26.2407 20.9602 25.5925 21.5032 24.7673C22.0463 23.942 22.3359 22.9759 22.3363 21.988C23.2451 22.4707 24.0195 23.1721 24.5893 24.029C25.1592 24.8859 25.5066 25.8712 25.6003 26.896C25.6003 27.032 25.6003 27.168 25.6203 27.296C25.6203 27.34 25.6203 27.384 25.6203 27.428C25.6231 28.6494 25.2625 29.8441 24.5843 30.86L24.0843 31.6L24.9843 31.716C25.1037 31.7316 25.2239 31.7396 25.3443 31.74C25.7905 31.7414 26.2306 31.6361 26.6279 31.433C27.0252 31.2298 27.3682 30.9346 27.6283 30.572C27.9227 31.5817 27.9545 32.6499 27.7207 33.6754C27.4869 34.7008 26.9953 35.6496 26.2923 36.432C28.4205 35.3108 30.2105 33.6413 31.4771 31.5962C32.7436 29.5512 33.4407 27.2049 33.4963 24.8C33.4963 24.704 33.4963 24.608 33.4963 24.508C33.4986 21.8648 32.7251 19.2791 31.2717 17.0713C29.8184 14.8636 27.7491 13.1309 25.3203 12.088ZM32.3723 24.768C32.3046 27.8497 31.0893 30.7951 28.9643 33.028C28.9883 32.7933 29.0003 32.556 29.0003 32.316C29 31.6243 28.9017 30.9361 28.7083 30.272L28.0643 28.052L26.7163 29.928C26.5567 30.1502 26.3453 30.3301 26.1003 30.452C26.531 29.5035 26.7533 28.4737 26.7523 27.432C26.7523 27.38 26.7523 27.328 26.7523 27.276C26.7523 27.12 26.7523 26.96 26.7283 26.8C26.6258 25.5847 26.2197 24.4146 25.5474 23.397C24.8751 22.3795 23.958 21.547 22.8803 20.976L21.2283 20.096V21.968C21.2226 22.7367 20.9924 23.4869 20.566 24.1265C20.1396 24.7661 19.5357 25.2671 18.8283 25.568L18.8003 25.6C17.4855 26.1638 16.3651 27.101 15.578 28.2956C14.7909 29.4901 14.3716 30.8894 14.3723 32.32C14.3723 32.372 14.3723 32.424 14.3723 32.476C14.3957 33.7047 14.7301 34.9075 15.3443 35.972C12.5087 34.8146 10.2018 32.6488 8.86796 29.8918C7.53414 27.1348 7.26782 23.9817 8.12031 21.04C8.64049 21.7652 9.32646 22.3556 10.1211 22.7619C10.9156 23.1683 11.7959 23.3788 12.6883 23.376C12.9291 23.3753 13.1696 23.3592 13.4083 23.328L15.2083 23.096L14.2003 21.6C12.8435 19.5697 12.1209 17.1819 12.1243 14.74C12.1243 14.652 12.1243 14.56 12.1243 14.472C12.1243 14.208 12.1443 13.936 12.1683 13.672C12.3464 11.6151 13.0353 9.63515 14.1725 7.91192C15.3097 6.18868 16.8592 4.77667 18.6803 3.804C18.6832 5.77988 19.2641 7.71174 20.3516 9.36143C21.4391 11.0111 22.9855 12.3066 24.8003 13.088H24.8243L24.8843 13.112C27.1115 14.0674 29.0089 15.6561 30.3408 17.6807C31.6728 19.7053 32.3806 22.0766 32.3763 24.5C32.3763 24.588 32.3723 24.68 32.3723 24.768Z" fill="white"/>
</g>
</svg>
