<svg width="18" height="18" viewBox="0 0 18 18" fill="none" xmlns="http://www.w3.org/2000/svg">
<g clip-path="url(#clip0_13419_2187)">
<path fill-rule="evenodd" clip-rule="evenodd" d="M7.73748 0.522953L6.38266 1.87777C6.27286 1.98757 6.12394 2.04926 5.96867 2.04926H3.83473C2.84864 2.04926 2.04926 2.84864 2.04926 3.83473V5.96867C2.04926 6.12394 1.98757 6.27286 1.87777 6.38266L0.522953 7.73748C-0.174317 8.43475 -0.174318 9.56525 0.522953 10.2625L1.87777 11.6173C1.98757 11.7271 2.04926 11.8761 2.04926 12.0313V14.1653C2.04926 15.1513 2.84864 15.9508 3.83473 15.9508H5.96867C6.12394 15.9508 6.27286 16.0124 6.38266 16.1222L7.73748 17.477C8.43475 18.1744 9.56525 18.1744 10.2625 17.477L11.6173 16.1222C11.7271 16.0124 11.8761 15.9508 12.0313 15.9508H14.1653C15.1513 15.9508 15.9508 15.1513 15.9508 14.1653V12.0313C15.9508 11.8761 16.0124 11.7271 16.1222 11.6173L17.477 10.2625C18.1744 9.56525 18.1744 8.43475 17.477 7.73748L16.1222 6.38266C16.0124 6.27286 15.9508 6.12394 15.9508 5.96867V3.83473C15.9508 2.84864 15.1513 2.04926 14.1653 2.04926H12.0313C11.8761 2.04926 11.7271 1.98757 11.6173 1.87777L10.2625 0.522953C9.56525 -0.174317 8.43475 -0.174318 7.73748 0.522953ZM5.57578 11.5757L11.5758 5.57574L12.4243 6.42427L6.42431 12.4243L5.57578 11.5757ZM6 6V7.2H7.2V6H6ZM10.8 12H12V10.8H10.8V12Z" fill="#A0072F"/>
</g>
<defs>
<clipPath id="clip0_13419_2187">
<rect width="18" height="18" fill="white"/>
</clipPath>
</defs>
</svg>
