<svg width="18" height="18" viewBox="0 0 18 18" fill="none" xmlns="http://www.w3.org/2000/svg">
<path d="M10.9969 7.30343C10.8934 7.40768 10.8821 7.54643 10.9654 7.72081C11.0467 7.89481 11.2211 8.11306 11.487 8.37556C11.7525 8.63731 11.9737 8.80981 12.1507 8.89193C12.3289 8.97368 12.4691 8.96168 12.5719 8.85743C12.7702 8.65681 12.6056 8.29606 12.0784 7.77593C11.5545 7.25993 11.1941 7.10206 10.9969 7.30343Z" fill="#A0072F"/>
<path d="M10.5281 0L0 10.5296L7.47263 18.0011L18.0011 7.47188V0.00225L10.5281 0ZM8.21138 10.911C7.87163 11.2568 7.48388 11.4015 7.05 11.3438C6.61688 11.2883 6.16538 11.0288 5.697 10.5664C4.74113 9.62288 4.61888 8.79038 5.33138 8.06888C5.67975 7.71525 6.07163 7.56638 6.50625 7.6215C6.94088 7.67663 7.38863 7.93163 7.8495 8.38575C8.33025 8.8605 8.59988 9.31013 8.658 9.73425C8.71538 10.1595 8.5665 10.5518 8.21138 10.911ZM9.94463 12.7009L7.86825 5.6295L8.6115 4.87613L10.6871 11.9486L9.94463 12.7009ZM13.2128 9.50325C12.8719 9.84788 12.4845 9.99375 12.0506 9.936C11.6171 9.88013 11.1668 9.62213 10.6999 9.16163C9.744 8.21813 9.62213 7.38563 10.3339 6.66338C10.683 6.31013 11.0749 6.16088 11.5099 6.21638C11.9438 6.2715 12.3923 6.52613 12.852 6.98025C13.3313 7.45275 13.5994 7.90238 13.6575 8.3265C13.716 8.75138 13.5679 9.144 13.2128 9.50325ZM16.002 3.58313C15.5648 4.02 14.8564 4.02 14.4176 3.58388C13.9808 3.1455 13.9808 2.43675 14.4169 1.99838C14.8549 1.56113 15.5651 1.56113 16.002 1.99762C16.4404 2.43712 16.4411 3.14475 16.002 3.58313Z" fill="#A0072F"/>
<path d="M5.99292 8.70889C5.88904 8.81389 5.87854 8.95339 5.96142 9.12701C6.04317 9.30101 6.21754 9.51926 6.48304 9.78214C6.74854 10.0443 6.96979 10.216 7.14717 10.2978C7.32417 10.3803 7.46517 10.369 7.56829 10.264C7.76554 10.0634 7.60167 9.70264 7.07479 9.18214C6.55129 8.66614 6.19054 8.50901 5.99292 8.70889Z" fill="#A0072F"/>
</svg>
