<svg width="631" height="781" viewBox="0 0 631 781" fill="none" xmlns="http://www.w3.org/2000/svg">
<path d="M553.064 734.5C506.58 710.187 463.13 679.885 423.72 644.222C379.768 604.45 341.929 559.03 311.252 509.225C270.966 443.817 266.439 396.575 273.551 364.465C318.359 398.537 366.505 428.133 417.225 452.428C438.13 462.442 462.674 473.269 489.425 474.995C519.091 476.908 546.002 466.284 561.412 446.576C577.934 425.443 580.664 393.549 568.366 365.321C558.843 343.467 541.367 323.716 514.939 304.938C473.332 275.371 426.94 260.375 384.322 262.703C333.968 265.454 288.451 293.512 268.363 334.185C267.522 335.887 266.702 337.651 265.912 339.482C156.004 251.425 68.0545 135.53 14.8205 5.31493C13.2529 1.47877 8.87433 -0.35735 5.0404 1.21049C1.20592 2.77918 -0.631019 7.15714 0.936824 10.9911C55.7881 145.165 146.818 264.385 260.611 354.426C250.625 389.862 252.927 443.131 298.481 517.091C329.901 568.105 368.652 614.619 413.656 655.345C439.693 678.906 467.446 700.189 496.654 719.016C512.903 729.49 529.607 739.199 546.709 748.12L516.236 774.674L630.404 780.741L555.076 694.735L553.064 734.5ZM281.812 340.828C299.543 304.929 340.102 280.142 385.142 277.681C424.384 275.538 467.388 289.561 506.252 317.166C530.394 334.32 546.215 352.031 554.615 371.313C564.746 394.565 562.776 420.48 549.597 437.337C537.426 452.902 514.74 461.596 490.392 460.025C468.735 458.628 448.071 450.569 423.706 438.9C372.212 414.235 323.431 384.018 278.173 349.12C279.307 346.184 280.531 343.422 281.812 340.828Z" fill="#A0072F"/>
</svg>
