<svg width="18" height="18" viewBox="0 0 18 18" fill="none" xmlns="http://www.w3.org/2000/svg">
<path d="M9 13.95C5.22656 13.95 2.175 10.8984 2.175 7.125C2.175 3.38437 5.22656 0.299999 9 0.299999C12.7406 0.299999 15.825 3.38437 15.825 7.125C15.825 10.8984 12.7406 13.95 9 13.95ZM8.24531 3.51562C7.19531 3.54844 6.30937 4.43437 6.30937 5.55C6.30937 6.46875 6.9 7.28906 7.75312 7.51875L9.7875 8.14219C10.0172 8.20781 10.1813 8.4375 10.1813 8.73281C10.1813 9.06094 9.95156 9.32344 9.65625 9.32344H8.37656C8.17969 9.32344 7.98281 9.25781 7.78594 9.15937C7.65469 9.06094 7.45781 9.06094 7.32656 9.19219L6.80156 9.68437C6.6375 9.84844 6.67031 10.1109 6.83437 10.2422C7.26094 10.5703 7.75312 10.7344 8.24531 10.7672V11.325C8.24531 11.6203 8.50781 11.85 8.80312 11.85H9.16406C9.45938 11.85 9.72188 11.6203 9.72188 11.325V10.7672C10.7719 10.7344 11.6578 9.84844 11.6578 8.73281C11.6578 7.81406 11.0672 6.99375 10.2141 6.76406L8.17969 6.14062C7.95 6.075 7.78594 5.8125 7.78594 5.55C7.78594 5.22187 8.01562 4.95937 8.31094 4.95937H9.59063C9.7875 4.95937 9.98438 5.025 10.1813 5.12344C10.3125 5.22187 10.5094 5.22187 10.6406 5.09062L11.1656 4.59844C11.3297 4.43437 11.2969 4.17187 11.1328 4.00781C10.7063 3.7125 10.2141 3.54844 9.72188 3.51562V2.95781C9.72188 2.6625 9.45938 2.4 9.16406 2.4H8.80312C8.50781 2.4 8.24531 2.6625 8.24531 2.95781V3.51562ZM16.35 11.85C16.9078 11.85 17.4 12.3422 17.4 12.9V16.05C17.4 16.6406 16.9078 17.1 16.35 17.1H1.65C1.05937 17.1 0.599999 16.6406 0.599999 16.05V12.9C0.599999 12.3422 1.05937 11.85 1.65 11.85H2.7C3.35625 12.7031 4.17656 13.425 5.09531 13.95H2.99531C2.83125 13.95 2.7 14.0812 2.7 14.2125V14.7375C2.7 14.9016 2.83125 15 2.99531 15H14.9719C15.1359 15 15.2672 14.9016 15.2672 14.7375V14.2125C15.2672 14.0812 15.1359 13.95 14.9719 13.95H12.8719C13.7906 13.425 14.6109 12.7031 15.2672 11.85H16.35Z" fill="#C8385E"/>
</svg>
