<svg width="18" height="16" viewBox="0 0 18 16" fill="none" xmlns="http://www.w3.org/2000/svg">
<g clip-path="url(#clip0_13419_2239)">
<path d="M10.35 0.800781C11.0953 0.800781 11.7 1.40519 11.7 2.15078V3.50078H13.1259C13.6041 3.50078 14.0372 3.68922 14.4 4.02672L16.5741 6.20078C16.9116 6.53828 17.1 6.99672 17.1 7.47484V10.7008C17.5978 10.7008 18 11.103 18 11.6008C18 12.0986 17.5978 12.5008 17.1 12.5008H16.2C16.2 13.9914 14.9906 15.2008 13.5 15.2008C11.9841 15.2008 10.8 13.9914 10.8 12.5008H7.2C7.2 13.9914 5.99062 15.2008 4.5 15.2008C2.98406 15.2008 1.8 13.9914 1.8 12.5008H1.35C0.604406 12.5008 0 11.8961 0 11.1508V2.15078C0 1.40519 0.604406 0.800781 1.35 0.800781H10.35ZM11.7 5.30078V8.00078H15.3V7.47484L13.1259 5.30078H11.7ZM4.5 11.1508C3.75469 11.1508 3.15 11.7555 3.15 12.5008C3.15 13.2461 3.75469 13.8508 4.5 13.8508C5.24531 13.8508 5.85 13.2461 5.85 12.5008C5.85 11.7555 5.24531 11.1508 4.5 11.1508ZM13.5 13.8508C14.2453 13.8508 14.85 13.2461 14.85 12.5008C14.85 11.7555 14.2453 11.1508 13.5 11.1508C12.7547 11.1508 12.15 11.7555 12.15 12.5008C12.15 13.2461 12.7547 13.8508 13.5 13.8508Z" fill="#A0072F"/>
</g>
<defs>
<clipPath id="clip0_13419_2239">
<rect width="18" height="14.4" fill="white" transform="translate(0 0.800781)"/>
</clipPath>
</defs>
</svg>
